<svg width="174" height="275" viewBox="0 0 174 275" fill="none" xmlns="http://www.w3.org/2000/svg">
<path d="M111.38 0V51.5593C111.38 55.4534 108.336 58.6102 104.581 58.6102H56.5596C52.8044 58.6102 49.7602 61.7669 49.7602 65.661V115.458C49.7602 119.352 46.716 122.508 42.9607 122.508H-5.0603C-8.81553 122.508 -11.8597 125.665 -11.8597 129.559V179.356C-11.8597 183.25 -14.904 186.407 -18.6592 186.407H-66.6802C-70.4354 186.407 -73.4797 189.564 -73.4797 193.458V243.254C-73.4797 247.148 -76.5239 250.305 -80.2791 250.305H-130M173 0V51.5593C173 55.4534 169.956 58.6102 166.201 58.6102H118.18C114.424 58.6102 111.38 61.7669 111.38 65.661V115.458C111.38 119.352 108.336 122.508 104.581 122.508H56.5596C52.8044 122.508 49.7602 125.665 49.7602 129.559V179.356C49.7602 183.25 52.8044 186.407 56.5596 186.407H104.581C108.336 186.407 111.38 183.25 111.38 179.356V128.678L111.44 128.262C111.896 125.068 114.51 122.683 117.623 122.621L123.279 122.508H166.201C169.956 122.508 173 125.665 173 129.559V179.356C173 183.25 169.956 186.407 166.201 186.407H117.755L116.14 186.518C113.462 186.704 111.38 189.011 111.38 191.795V197.203M111.38 191.695V243.254C111.38 247.148 108.336 250.305 104.581 250.305H56.5596C52.8044 250.305 49.7602 253.462 49.7602 257.356V307.153C49.7602 311.047 46.716 314.203 42.9607 314.203H-5.0603C-8.81553 314.203 -11.8597 317.36 -11.8597 321.254V371.051C-11.8597 374.945 -14.904 378.102 -18.6592 378.102H-66.6802C-70.4354 378.102 -73.4797 381.258 -73.4797 385.153V434.949C-73.4797 438.843 -76.5239 442 -80.2791 442H-130" stroke="url(#paint0_linear_458_11520)" stroke-opacity="0.2" stroke-width="0.431035"/>
<defs>
<linearGradient id="paint0_linear_458_11520" x1="173" y1="0" x2="-136.306" y2="369.102" gradientUnits="userSpaceOnUse">
<stop offset="0.0819437" stop-color="#F7F7F7"/>
<stop offset="0.208333" stop-color="#390D8E"/>
<stop offset="0.526042" stop-color="#5F16EC"/>
<stop offset="0.9375" stop-color="#FDC700"/>
</linearGradient>
</defs>
</svg>
