<svg width="618" height="530" viewBox="0 0 618 530" fill="none" xmlns="http://www.w3.org/2000/svg">
<path d="M105.704 614.968C91.5255 614.937 77.4975 612.06 64.4514 606.508C51.4052 600.956 39.6064 592.841 29.7541 582.645C19.9018 572.449 12.1965 560.379 7.09495 547.15C1.99339 533.921 -0.400678 519.803 0.054641 505.632C2.00738 450.116 12.4276 395.225 30.955 342.856C37.0042 325.744 47.3478 310.472 60.9941 298.506C74.6405 286.539 91.1321 278.278 108.888 274.516C126.644 270.753 145.068 271.615 162.396 277.018C179.723 282.421 195.372 292.184 207.842 305.372L266.833 367.612C281.146 382.639 290.714 401.55 294.34 421.984C297.966 442.417 295.49 463.466 287.221 482.5C282.663 493.005 279.184 503.947 276.841 515.156C272.646 534.709 262.999 552.673 249.016 566.97C235.034 581.267 217.289 591.311 197.834 595.94L130.635 612.049C122.466 613.986 114.099 614.965 105.704 614.968ZM131.052 324.685C127.246 324.69 123.452 325.087 119.728 325.87C110.778 327.733 102.461 331.876 95.5829 337.897C88.7044 343.918 83.4973 351.614 80.4657 360.238C63.7266 407.581 54.313 457.203 52.5501 507.387C52.2363 515.55 53.8327 523.674 57.2122 531.111C60.5917 538.548 65.661 545.094 72.0164 550.226C78.4022 555.519 85.9358 559.248 94.0171 561.115C102.098 562.982 110.504 562.936 118.564 560.98L185.742 544.893C195.518 542.585 204.442 537.558 211.483 530.393C218.523 523.228 223.393 514.218 225.53 504.403C228.607 489.69 233.173 475.329 239.159 461.542C243.31 451.941 244.541 441.33 242.699 431.034C240.857 420.738 236.023 411.213 228.8 403.647L169.765 341.408C164.795 336.126 158.796 331.917 152.139 329.041C145.481 326.165 138.304 324.683 131.052 324.685Z" fill="#390D8E" fill-opacity="0.03"/>
<path d="M405.108 389.259C390.637 389.294 376.309 386.395 362.99 380.737C349.671 375.079 337.637 366.78 327.616 356.34L219.333 242.219C208.588 230.898 200.478 217.342 195.583 202.521C190.687 187.7 189.127 171.981 191.014 156.487C192.902 140.993 198.189 126.107 206.499 112.895C214.809 99.6825 225.937 88.4697 239.085 80.0585C303.93 38.9198 376.762 11.9995 452.775 1.07395C470.75 -1.50398 489.085 0.577652 506.023 7.11936C522.962 13.6611 537.937 24.4436 549.513 38.4336C561.089 52.4236 568.877 69.1521 572.132 87.0161C575.387 104.88 574 123.281 568.103 140.455L507.334 317.517C500.704 336.622 488.767 353.442 472.92 366.004C457.072 378.567 437.973 386.352 417.859 388.447L416.849 388.557C412.952 389.009 409.032 389.243 405.108 389.259ZM365.605 320.194C371.377 326.246 378.48 330.87 386.35 333.701C394.22 336.531 402.641 337.49 410.946 336.5L412.372 336.347C422.538 335.28 432.19 331.342 440.2 324.991C448.21 318.641 454.246 310.141 457.604 300.487L518.417 123.358C521.484 114.726 522.237 105.441 520.6 96.4272C518.964 87.4135 514.995 78.9855 509.089 71.9823C503.247 64.8613 495.661 59.3728 487.07 56.0502C478.479 52.7277 469.175 51.684 460.061 53.0207C391.452 62.8193 325.702 87.0623 267.154 124.148C260.57 128.354 254.999 133.966 250.841 140.579C246.682 147.193 244.039 154.645 243.101 162.401C242.119 170.258 242.893 178.236 245.367 185.758C247.841 193.28 251.955 200.159 257.41 205.898L365.605 320.194Z" fill="#390D8E" fill-opacity="0.03"/>
<path d="M674.285 532.421C654.762 532.415 635.619 527.018 618.968 516.826C602.316 506.634 588.802 492.042 579.916 474.659C575.151 465.276 569.777 456.215 563.829 447.533C554.474 433.961 548.412 418.395 546.126 402.07C543.84 385.746 545.393 369.113 550.661 353.493L632.345 115.464C637.402 100.699 645.659 87.2333 656.526 76.0305C667.393 64.8276 680.601 56.1643 695.205 50.66C709.81 45.1558 725.45 42.9466 741.008 44.1905C756.566 45.4344 771.657 50.1006 785.201 57.8555C902.817 125.006 990.335 234.553 1029.86 364.093C1034.34 378.864 1035.54 394.435 1033.38 409.718C1031.21 425.001 1025.73 439.625 1017.31 452.567C1008.9 465.508 997.759 476.454 984.672 484.637C971.584 492.821 956.865 498.044 941.546 499.941L687.365 531.609C683.026 532.152 678.657 532.423 674.285 532.421ZM732.618 96.2834C721.454 96.286 710.57 99.7778 701.488 106.27C692.406 112.763 685.58 121.932 681.966 132.495L600.304 370.502C597.668 378.36 596.902 386.726 598.068 394.932C599.234 403.139 602.299 410.96 607.019 417.774C614.287 428.377 620.849 439.447 626.661 450.913C631.663 460.674 639.549 468.66 649.247 473.784C658.945 478.908 669.986 480.922 680.869 479.553L935.05 447.95C942.838 446.984 950.319 444.322 956.966 440.151C963.613 435.98 969.265 430.401 973.522 423.809C977.745 417.32 980.494 409.983 981.574 402.316C982.655 394.649 982.041 386.838 979.776 379.434C944.096 262.649 865.151 163.906 759.085 103.394C751.038 98.7462 741.911 96.2942 732.618 96.2834Z" fill="#390D8E" fill-opacity="0.03"/>
<path d="M536.372 551.552C533.983 691.574 325.71 691.553 323.342 551.552C325.731 411.551 534.005 411.573 536.372 551.552Z" fill="#390D8E" fill-opacity="0.03"/>
</svg>
