<svg xmlns="http://www.w3.org/2000/svg" width="107" height="42" fill="none" viewBox="0 0 107 42"><path fill="#efe8fd" d="M3.718 24.353a3.726 3.726 0 0 1-3.716-3.846 19.2 19.2 0 0 1 1.087-5.725 3.727 3.727 0 0 1 6.222-1.319l2.074 2.19a3.71 3.71 0 0 1 .718 4.04q-.24.556-.366 1.15a3.72 3.72 0 0 1-2.778 2.84l-2.364.567a3.8 3.8 0 0 1-.877.103m.892-10.21q-.202 0-.399.041a1.87 1.87 0 0 0-1.38 1.21 17.4 17.4 0 0 0-.983 5.175 1.85 1.85 0 0 0 .685 1.507 1.87 1.87 0 0 0 1.637.378l2.363-.566a1.87 1.87 0 0 0 1.4-1.424 7.8 7.8 0 0 1 .479-1.508 1.87 1.87 0 0 0-.364-2.036L5.97 14.731a1.87 1.87 0 0 0-1.361-.588M13.257 38.798c-.472 0-.94-.09-1.38-.264a18.73 18.73 0 0 1-8.395-6.555 3.727 3.727 0 0 1 2.169-5.786l2.542-.61a3.73 3.73 0 0 1 3.364.857 6.1 6.1 0 0 0 1.679 1.072 3.75 3.75 0 0 1 2.067 2.194l1.454 4.118a3.735 3.735 0 0 1-3.5 4.973zM9.06 27.328q-.223 0-.438.051l-2.541.608a1.88 1.88 0 0 0-1.099 2.922 16.9 16.9 0 0 0 7.57 5.91 1.883 1.883 0 0 0 2.465-2.378l-1.453-4.117a1.9 1.9 0 0 0-1.048-1.113 8 8 0 0 1-2.193-1.399 1.9 1.9 0 0 0-1.263-.485M14.25 16.414a3.77 3.77 0 0 1-2.727-1.158l-3.808-4.014a3.726 3.726 0 0 1 .694-5.704 19.1 19.1 0 0 1 7.517-2.778 3.73 3.73 0 0 1 4.056 4.903l-2.137 6.228a3.74 3.74 0 0 1-3.147 2.495l-.036.003a4 4 0 0 1-.413.025m-1.39-2.43a1.9 1.9 0 0 0 1.594.574l.05-.005a1.89 1.89 0 0 0 1.592-1.261l2.139-6.23a1.84 1.84 0 0 0-.328-1.808 1.88 1.88 0 0 0-1.725-.667A17.2 17.2 0 0 0 9.397 7.09a1.86 1.86 0 0 0-.846 1.346 1.88 1.88 0 0 0 .503 1.53zM23.52 39.047a3.75 3.75 0 0 1-3.525-2.483l-2.007-5.688a3.715 3.715 0 0 1 1.19-4.157c.471-.372.887-.81 1.234-1.3a3.73 3.73 0 0 1 2.582-1.564l9.326-1.163a3.724 3.724 0 0 1 3.955 4.999 18.66 18.66 0 0 1-11.571 11.163 3.7 3.7 0 0 1-1.184.193m-.309-13.362a1.88 1.88 0 0 0-1.3.794 8 8 0 0 1-1.598 1.687 1.87 1.87 0 0 0-.593 2.096l2.007 5.688a1.895 1.895 0 0 0 2.381 1.158 16.83 16.83 0 0 0 10.43-10.067 1.85 1.85 0 0 0-.283-1.812 1.87 1.87 0 0 0-1.716-.706zM23.717 21.45a3.73 3.73 0 0 1-3.32-2.032 8.5 8.5 0 0 0-.565-.954 3.73 3.73 0 0 1-.463-3.308l2.873-8.372a3.726 3.726 0 0 1 5.376-2.026 18.68 18.68 0 0 1 8.606 10.771 3.725 3.725 0 0 1-3.107 4.778l-8.94 1.114q-.23.03-.46.029m2.052-15.34a1.88 1.88 0 0 0-1.782 1.273l-2.872 8.372a1.87 1.87 0 0 0 .236 1.662q.384.56.69 1.166a1.88 1.88 0 0 0 1.907 1.007l8.94-1.111a1.89 1.89 0 0 0 1.637-1.605c.038-.27.017-.545-.063-.805a16.85 16.85 0 0 0-7.762-9.71 1.87 1.87 0 0 0-.931-.25M18.866 22.123c-.084 4.925-7.41 4.924-7.493 0 .084-4.925 7.41-4.924 7.493 0"/><g fill="#efe8fd" clip-path="url(#a)"><path d="M61.036 38.796a1.48 1.48 0 0 0-1.074.413 1.42 1.42 0 0 0-.424 1.062 1.45 1.45 0 0 0 1.498 1.498 1.38 1.38 0 0 0 1.05-.425 1.5 1.5 0 0 0 .4-1.073 1.47 1.47 0 0 0-.4-1.062 1.4 1.4 0 0 0-1.05-.413M57.267 38.796a1.48 1.48 0 0 0-1.076.413 1.42 1.42 0 0 0-.424 1.062 1.45 1.45 0 0 0 1.5 1.498 1.38 1.38 0 0 0 1.048-.425 1.5 1.5 0 0 0 .4-1.073 1.46 1.46 0 0 0-.4-1.062 1.4 1.4 0 0 0-1.048-.413M73.235 20.293a1.36 1.36 0 0 0-1.36 1.36v4.691q0 1.42-.638 2.035t-2.184.612h-2.84c-.167 0-.357 0-.575-.013-.218-.014-.436-.026-.661-.05a12 12 0 0 1-.65-.088 3 3 0 0 1-.536-.124l-2.753-.826a.507.507 0 0 0-.633.354l-.34 1.254a.507.507 0 0 0 .333.615l2.565.826q1.473.498 2.01.947a1.28 1.28 0 0 1 .536.975q0 .975-1.512 1.636-1.511.66-4.38.66-2.823 0-4.396-.947a3.09 3.09 0 0 1-1.574-2.822c.012-.636.1-1.27.262-1.885q.11-.445.255-.888a1.363 1.363 0 0 0-.826-1.695l-.211-.076a1.103 1.103 0 0 0-1.4.599 11 11 0 0 0-.578 1.723 9.7 9.7 0 0 0-.323 2.223c-.03.97.185 1.93.624 2.796a5.1 5.1 0 0 0 1.784 1.885c.86.524 1.809.883 2.799 1.06 1.222.23 2.464.339 3.707.326a16.7 16.7 0 0 0 3.67-.363 9.7 9.7 0 0 0 2.673-.975 4.5 4.5 0 0 0 1.624-1.472 3.36 3.36 0 0 0 .548-1.835 1.84 1.84 0 0 0-.23-.86.507.507 0 0 1 .46-.74h.977q2.752 0 3.943-1.073 1.19-1.073 1.19-3.335v-5.15a1.36 1.36 0 0 0-1.36-1.36M73.095 33.153a1.48 1.48 0 0 0-1.073.413 1.42 1.42 0 0 0-.425 1.062 1.45 1.45 0 0 0 1.498 1.498 1.38 1.38 0 0 0 1.048-.425c.27-.291.414-.677.402-1.073a1.46 1.46 0 0 0-.402-1.062 1.4 1.4 0 0 0-1.048-.413M85.978 21.468a4.7 4.7 0 0 0-1.647-1 6.1 6.1 0 0 0-2.086-.35 5.76 5.76 0 0 0-2.397.476c-.675.299-1.282.732-1.784 1.273a5.3 5.3 0 0 0-1.113 1.874 6.9 6.9 0 0 0-.374 2.294q0 2.421 1.498 3.796t4.13 1.376q.722.015 1.435-.112c.115-.023.23-.046.335-.073a.508.508 0 0 1 .62.6c-.091.475-.35.9-.73 1.198q-.811.61-2.31.61a8 8 0 0 1-1.422-.124 37 37 0 0 1-.776-.147.506.506 0 0 0-.594.404l-.213 1.133a.507.507 0 0 0 .395.59q.517.103 1.098.179.8.108 1.606.112 2.945 0 4.37-1.36t1.422-4.033v-4.897a5.9 5.9 0 0 0-.388-2.195 4.4 4.4 0 0 0-1.075-1.624m-1.631 7.218q-.245.082-.528.16a5 5 0 0 1-1.273.139 4.5 4.5 0 0 1-1.163-.152 2.5 2.5 0 0 1-1.709-1.498 3.8 3.8 0 0 1-.275-1.523 4.4 4.4 0 0 1 .287-1.711c.15-.388.386-.737.688-1.023a2.45 2.45 0 0 1 .885-.512 2.9 2.9 0 0 1 .874-.149c.42-.015.836.075 1.211.262.318.168.588.412.787.71.214.327.361.691.434 1.074q.129.656.126 1.324v2.42a.51.51 0 0 1-.344.48M93.185 20.293h-1.711a.505.505 0 0 0-.505.507v9.756q0 1.375-.438 2.037-.438.66-1.585.688a5 5 0 0 1-.645-.046.507.507 0 0 0-.56.427l-.194 1.22a.505.505 0 0 0 .406.578q.183.033.392.055.536.063 1.076.062c.596.008 1.19-.08 1.76-.261.51-.166.973-.453 1.348-.838.4-.429.695-.946.86-1.509a7.5 7.5 0 0 0 .3-2.26V20.8a.507.507 0 0 0-.504-.506M105.01 23.202a4.2 4.2 0 0 0-1.062-1.546 4.7 4.7 0 0 0-1.821-1.012 8.8 8.8 0 0 0-2.636-.351h-1.66a1.11 1.11 0 0 0-1.111 1.113v.025a1.11 1.11 0 0 0 1.11 1.11h.987a6.3 6.3 0 0 1 1.812.23c.434.119.836.337 1.172.637a2.3 2.3 0 0 1 .624.998c.13.424.194.866.188 1.31v.6q0 1.397-.551 2.036-.55.637-2.064.637h-3.735a1.11 1.11 0 0 0 0 2.22h4.634q2.445 0 3.459-1.084t1.01-3.41v-1.547a5.4 5.4 0 0 0-.356-1.966M51.45 16.763a1.5 1.5 0 0 0 1.025.415h4.678a8.45 8.45 0 0 0 3.326-.668 8.78 8.78 0 0 0 4.638-4.53 8 8 0 0 0 .688-3.305 8.2 8.2 0 0 0-.314-2.267 8.4 8.4 0 0 0-.883-2.04 9 9 0 0 0-3.134-3.077A8.7 8.7 0 0 0 59.41.426a8.4 8.4 0 0 0-2.274-.308h-4.668a1.5 1.5 0 0 0-.566.106 1.38 1.38 0 0 0-.766.76 1.4 1.4 0 0 0-.113.566V15.75a1.357 1.357 0 0 0 .427 1.012M53.92 3.01h3.292a5.3 5.3 0 0 1 2.214.472 6.1 6.1 0 0 1 1.819 1.26 5.9 5.9 0 0 1 1.225 1.812 5.3 5.3 0 0 1 0 4.264 5.7 5.7 0 0 1-1.225 1.78 6 6 0 0 1-1.82 1.225 5.4 5.4 0 0 1-2.213.46H53.92zM67.115 16.763c.138.128.3.23.475.3.183.077.38.116.58.115a1.417 1.417 0 0 0 1.4-1.427v-4.345a3.4 3.4 0 0 1 .314-1.452c.195-.441.47-.843.812-1.186a3.7 3.7 0 0 1 1.192-.8 3.65 3.65 0 0 1 1.445-.294h.028c.2.002.396-.037.58-.112.177-.073.34-.177.48-.308q.208-.197.326-.458c.08-.18.12-.376.119-.574a1.42 1.42 0 0 0-.392-1.032 1.47 1.47 0 0 0-1.122-.408h-.028a6.4 6.4 0 0 0-2.571.527 6.72 6.72 0 0 0-3.551 3.551 6.4 6.4 0 0 0-.53 2.585v4.306a1.377 1.377 0 0 0 .443 1.012M80.747 17.336a6.1 6.1 0 0 0 2.473-.5 6.4 6.4 0 0 0 2.014-1.376 6.5 6.5 0 0 0 1.358-2.026 6.35 6.35 0 0 0 0-4.939 6.5 6.5 0 0 0-1.358-2.018A6.4 6.4 0 0 0 83.22 5.1a6.35 6.35 0 0 0-4.93 0 6.58 6.58 0 0 0-3.397 3.395 6.27 6.27 0 0 0 0 4.94 6.56 6.56 0 0 0 3.398 3.401 6.1 6.1 0 0 0 2.456.5m-3.463-6.36a3.44 3.44 0 0 1 1.018-2.452 3.6 3.6 0 0 1 1.108-.742 3.35 3.35 0 0 1 1.337-.273 3.4 3.4 0 0 1 1.354.273 3.42 3.42 0 0 1 1.833 1.84c.178.428.268.889.266 1.353a3.477 3.477 0 0 1-1 2.445 3.4 3.4 0 0 1-1.1.746 3.35 3.35 0 0 1-1.353.275 3.3 3.3 0 0 1-1.344-.275 3.5 3.5 0 0 1-1.846-1.851 3.4 3.4 0 0 1-.273-1.34M99.041 15.471a6.5 6.5 0 0 0 1.351-2.025 6.35 6.35 0 0 0 0-4.946 6.36 6.36 0 0 0-3.372-3.379 6.2 6.2 0 0 0-2.472-.497 6 6 0 0 0-1.835.272 6.6 6.6 0 0 0-1.634.767v-4.16a1.6 1.6 0 0 0-.108-.591 1.376 1.376 0 0 0-.757-.8 1.53 1.53 0 0 0-1.147 0 1.3 1.3 0 0 0-.458.318c-.13.14-.234.304-.305.482a1.5 1.5 0 0 0-.115.592v9.471a6.2 6.2 0 0 0 .505 2.47 6.4 6.4 0 0 0 3.392 3.391 6.34 6.34 0 0 0 4.937 0 6.4 6.4 0 0 0 2.018-1.365m-3.14-1.3a3.42 3.42 0 0 1-2.69 0 3.5 3.5 0 0 1-1.847-1.851 3.4 3.4 0 0 1-.273-1.345 3.44 3.44 0 0 1 1.019-2.452 3.6 3.6 0 0 1 1.1-.74 3.44 3.44 0 0 1 2.691 0c.41.176.783.428 1.101.74.316.314.567.688.739 1.099.179.428.27.889.266 1.353a3.44 3.44 0 0 1-1.005 2.445c-.316.318-.69.573-1.101.75M102.432 2.947c.146.144.318.259.507.34a1.55 1.55 0 0 0 1.225 0 1.7 1.7 0 0 0 .513-.34c.147-.143.265-.313.347-.5a1.576 1.576 0 0 0-.347-1.739 1.7 1.7 0 0 0-.513-.342 1.55 1.55 0 0 0-1.225 0 1.595 1.595 0 0 0-.973 1.473c-.001.209.042.416.126.608q.124.28.34.5M104.145 4.896a1.438 1.438 0 0 0-1.585.312 1.6 1.6 0 0 0-.319.46c-.08.172-.12.361-.119.552v9.517a1.41 1.41 0 0 0 .424 1.026q.203.193.459.305a1.42 1.42 0 0 0 1.12 0q.258-.109.458-.305.197-.2.308-.46c.076-.178.114-.371.112-.566V6.222a1.44 1.44 0 0 0-.406-1.014 1.4 1.4 0 0 0-.452-.312"/></g><defs><clipPath id="a"><path fill="#fff" d="M48.51 0h58.435v41.77H48.51z"/></clipPath></defs></svg>