<svg width="233" height="394" viewBox="0 0 233 394" fill="none" xmlns="http://www.w3.org/2000/svg">
<path d="M-249.996 339.226C-253.065 344.455 -251.321 351.2 -245.99 354.09C-193.79 382.387 -134.745 395.829 -75.3028 392.838C-12.2009 389.662 48.5957 368.106 99.6045 330.823C150.613 293.54 189.608 242.156 211.79 182.996C232.685 127.267 237.802 66.9289 226.688 8.60151C225.553 2.64527 219.656 -1.06382 213.741 0.272259C207.827 1.60834 204.136 7.48313 205.256 13.4421C215.436 67.5897 210.622 123.568 191.23 175.288C170.552 230.438 134.199 278.34 86.6475 313.096C39.0956 347.853 -17.5809 367.948 -76.4063 370.908C-131.572 373.684 -186.37 361.277 -234.872 335.14C-240.21 332.263 -246.928 333.996 -249.996 339.226Z" fill="url(#paint0_linear_349_12014)"/>
<defs>
<linearGradient id="paint0_linear_349_12014" x1="-182.774" y1="15.7423" x2="176" y2="279.833" gradientUnits="userSpaceOnUse">
<stop stop-color="#5A2AB8"/>
<stop offset="1" stop-color="#988CB0"/>
</linearGradient>
</defs>
</svg>
