<svg width="84" height="232" viewBox="0 0 84 232" fill="none" xmlns="http://www.w3.org/2000/svg">
<path d="M433.347 159.375C433.967 167.981 432.975 176.233 430.39 183.997C429.363 183.637 428.233 184.164 427.853 185.189C426.255 189.507 424.135 193.666 421.492 197.644C419.312 200.925 416.789 204.065 413.932 207.052C413.175 207.844 413.198 209.095 413.978 209.86C409.275 214.529 403.774 218.801 397.529 222.646C396.962 221.709 395.747 221.4 394.802 221.958C391.403 223.965 387.786 225.849 383.956 227.604C381.749 228.616 379.453 229.252 377.128 229.545C376.058 229.68 375.295 230.637 375.388 231.702C371.586 231.889 367.76 231.256 364.134 229.92C364.512 228.987 364.136 227.926 363.274 227.434L363.091 227.342C360.905 226.373 358.813 225.126 356.876 223.632L350.821 218.964C349.947 218.29 348.69 218.453 348.016 219.327L339.077 212.434C339.751 211.559 339.588 210.304 338.713 209.63L332.659 204.961C329.82 202.773 327.935 199.979 326.821 196.787L326.608 196.144C326.288 195.117 325.218 194.535 324.189 194.808C322.831 188.661 323.741 181.608 326.007 174.944C327.029 175.313 328.162 174.798 328.552 173.778L328.822 173.086C330.196 169.637 331.926 166.351 333.862 163.436L334.166 162.972C335.665 160.645 336.885 158.21 337.821 155.681C338.205 154.645 337.676 153.494 336.64 153.111C336.621 153.104 336.602 153.099 336.583 153.093C337.784 149.162 338.277 145.019 338.06 140.716C338.077 140.714 338.095 140.715 338.112 140.713C339.211 140.603 340.013 139.623 339.903 138.524C339.659 136.095 339.204 133.631 338.541 131.139L338.244 130.069C337.315 126.859 336.048 123.628 334.463 120.398L334.141 119.752C333.644 118.766 332.441 118.369 331.455 118.866C331.446 118.871 331.438 118.877 331.429 118.882C328.836 114.089 325.514 109.275 321.507 104.506C321.512 104.502 321.518 104.498 321.523 104.494C322.303 103.813 322.428 102.66 321.842 101.833L321.715 101.672C319.689 99.3494 317.506 97.0425 315.173 94.7581L314.163 93.7804C311.273 91.0106 308.182 88.2927 304.904 85.6396L303.487 84.507C302.621 83.8217 301.363 83.9685 300.678 84.8347C300.675 84.838 300.673 84.8415 300.671 84.8447C294.616 80.1733 287.967 75.7114 280.826 71.5251C280.828 71.5219 280.831 71.5189 280.832 71.5157C281.382 70.5577 281.051 69.3349 280.093 68.7852C276.59 66.7757 272.975 64.833 269.261 62.9643L267.662 62.1677C263.041 59.8866 258.301 57.7363 253.472 55.7263C252.452 55.3019 251.281 55.7847 250.857 56.8044C250.856 56.8068 250.855 56.8095 250.854 56.8119C242.591 53.4507 234.071 50.5012 225.428 48.0102C225.428 48.0078 225.429 48.0052 225.43 48.0028C225.728 46.9391 225.106 45.8355 224.043 45.538C219.03 44.1358 213.98 42.8866 208.918 41.8002C204.093 40.7648 199.29 39.8846 194.53 39.1601C193.438 38.9939 192.418 39.744 192.252 40.8359C192.251 40.8392 192.252 40.8429 192.252 40.8461C183.749 39.6268 175.401 38.9159 167.337 38.7222C167.337 38.7181 167.337 38.714 167.337 38.7099C167.352 37.6054 166.468 36.6979 165.364 36.683C160.356 36.6157 155.457 36.7487 150.698 37.0854C146.688 37.3691 142.802 37.7954 139.055 38.3618C137.963 38.5269 137.212 39.5462 137.377 40.6383C137.378 40.644 137.38 40.6494 137.381 40.655C130.7 41.7689 124.504 43.3427 118.879 45.3515C118.876 45.3434 118.873 45.3345 118.87 45.3263C118.475 44.2952 117.319 43.78 116.287 44.1752C112.438 45.6505 108.853 47.3388 105.564 49.2361C105.519 49.2621 105.473 49.2882 105.428 49.3143C105.383 49.3404 105.341 49.3693 105.298 49.3983C105.251 49.4211 105.204 49.445 105.158 49.4719C105.114 49.4981 105.069 49.5241 105.024 49.5504C101.108 51.8597 97.0074 54.2977 92.7679 56.5948C91.8001 57.1194 91.4399 58.3263 91.9585 59.2958C84.6085 63.1687 76.8774 66.5157 69.1932 67.8716C69.0289 66.8001 68.0383 66.0509 66.958 66.1922C62.4229 66.7853 57.9848 66.595 53.7087 65.3332L45.4051 62.8825C44.3458 62.5699 43.2337 63.1752 42.9209 64.2343L30.1493 60.4663C30.4619 59.4071 29.8567 58.2949 28.7975 57.9821L20.493 55.5311C17.1677 54.5498 14.1246 53.0045 11.5084 51.0668L10.9905 50.6731C10.1372 50.0101 8.9183 50.1486 8.23108 50.9716C3.19979 46.479 0.0683945 40.5289 0.00203382 34.4827C1.05386 34.531 1.9721 33.7524 2.08096 32.6919C2.40153 29.5692 3.68772 26.421 6.22694 23.483C7.77653 21.6901 9.44241 19.9452 11.2235 18.251L11.3644 18.1029C12.0193 17.3401 12.0083 16.1935 11.3122 15.4426C13.9242 13.0777 16.7562 10.8176 19.8038 8.66959C20.4256 9.57093 21.6576 9.80658 22.5674 9.19262C24.5405 7.86115 26.6025 6.57345 28.7533 5.3328L29.1461 5.10028C31.135 3.88582 33.5686 1.91684 36.3255 -0.573049C39.2921 -3.25239 42.7275 -6.62241 46.5229 -10.4997L46.6584 -10.6535C47.2907 -11.4458 47.2327 -12.6036 46.4929 -13.328C46.4917 -13.3293 46.4904 -13.331 46.4892 -13.3323C54.8241 -21.9173 64.8658 -32.8459 75.6227 -44.429C76.4318 -43.6783 77.6961 -43.7242 78.4477 -44.5327C88.8542 -55.7279 99.8678 -67.4418 110.62 -78.1807L110.757 -78.333C111.397 -79.1174 111.354 -80.2746 110.624 -81.0074C121.878 -92.1806 132.81 -102.219 142.411 -109.395C143.062 -108.511 144.305 -108.316 145.195 -108.961C153.341 -114.865 160.061 -118.248 164.887 -118.589L165.273 -118.61C167.179 -118.681 168.753 -118.258 170.102 -117.457C171.563 -116.59 172.873 -115.211 174.042 -113.284C176.263 -109.623 177.804 -104.28 178.938 -97.7247L179.16 -96.3974C179.335 -95.312 180.353 -94.5736 181.438 -94.7404C184.039 -76.914 184.1 -53.2901 188.018 -35.293C188.011 -35.2914 188.004 -35.2903 187.996 -35.2886C186.99 -35.0473 186.345 -34.0832 186.481 -33.0786L186.518 -32.8775C189.521 -20.3415 194.821 -9.77365 205.458 -7.19927L205.968 -7.08254L209.253 -6.36451C216.912 -4.65827 224.554 -2.73805 232.145 -0.614235C233.207 -0.317567 234.308 -0.935057 234.608 -1.9944C250.736 2.59538 266.63 8.09713 282.005 14.4128C281.611 15.3673 282.01 16.4523 282.9 16.9333L283.085 17.0214C290.398 20.0649 297.589 23.2925 304.626 26.6943L307.633 28.1631C314.104 31.3574 320.403 34.68 326.507 38.1176L329.111 39.5979C330.067 40.1465 331.288 39.8181 331.839 38.8645C345.317 46.693 357.809 55.0849 369.1 63.8899C368.464 64.7018 368.554 65.8526 369.28 66.5564L369.433 66.6908C375.567 71.5435 381.329 76.5163 386.683 81.5836L387.748 82.5981C391.815 86.497 395.618 90.4285 399.147 94.3789L400.643 96.0729C401.367 96.9027 402.625 96.991 403.457 96.2721C411.291 105.444 417.681 114.717 422.523 123.939C421.609 124.408 421.208 125.487 421.568 126.429L421.651 126.617C424.375 132.021 426.548 137.389 428.155 142.688L428.468 143.748C429.745 148.16 430.619 152.495 431.096 156.736L431.185 157.583C431.294 158.672 432.259 159.469 433.347 159.375Z" fill="url(#paint0_linear_693_17650)" fill-opacity="0.8" stroke="#EBEBEB" stroke-width="4" stroke-linecap="round" stroke-linejoin="bevel" stroke-dasharray="55 55"/>
<defs>
<linearGradient id="paint0_linear_693_17650" x1="354.258" y1="7.14989" x2="398.593" y2="184.852" gradientUnits="userSpaceOnUse">
<stop stop-color="#5A2AB8" stop-opacity="0.5"/>
<stop offset="1" stop-color="#F7F3FF" stop-opacity="0.2"/>
</linearGradient>
</defs>
</svg>
