<svg width="485" height="492" viewBox="0 0 485 492" fill="none" xmlns="http://www.w3.org/2000/svg">
<path d="M274.773 483.63C275.583 488.587 280.264 491.966 285.188 490.974C325.652 482.826 363.492 464.692 395.237 438.16C429.311 409.682 455.11 372.574 469.939 330.716C484.767 288.857 488.081 243.784 479.534 200.207C470.987 156.63 450.892 116.148 421.349 82.9928C391.807 49.8373 353.902 25.2252 311.595 11.7284C269.288 -1.76838 224.133 -3.65431 180.848 6.26774C137.563 16.1898 97.7378 37.5556 65.5338 68.1322C35.5312 96.6186 13.1698 132.125 0.427015 171.385C-1.12382 176.163 1.69502 181.201 6.52671 182.575C11.3584 183.95 16.372 181.14 17.9368 176.367C29.7789 140.24 50.42 107.567 78.0594 81.3244C107.9 52.9913 144.804 33.1933 184.913 23.9992C225.022 14.8052 266.864 16.5527 306.066 29.0592C345.269 41.5657 380.393 64.372 407.767 95.0947C435.142 125.817 453.763 163.329 461.683 203.708C469.603 244.088 466.532 285.854 452.792 324.641C439.051 363.428 415.144 397.813 383.571 424.202C354.327 448.644 319.499 465.395 282.251 473.008C277.329 474.014 273.962 478.672 274.773 483.63Z" fill="url(#paint0_linear_349_12013)"/>
<defs>
<linearGradient id="paint0_linear_349_12013" x1="301.929" y1="295.155" x2="47.2877" y2="68.5148" gradientUnits="userSpaceOnUse">
<stop stop-color="#DCCAFF"/>
<stop offset="1" stop-color="#988CB0"/>
</linearGradient>
</defs>
</svg>
