<svg width="47" height="47" viewBox="0 0 47 47" fill="none" xmlns="http://www.w3.org/2000/svg">
<path d="M4.737 27.5589C4.10161 27.5575 3.47297 27.4286 2.88832 27.1798C2.30367 26.9309 1.77492 26.5673 1.3334 26.1104C0.891876 25.6534 0.546574 25.1125 0.317953 24.5197C0.0893315 23.9269 -0.0179559 23.2942 0.00244867 22.6591C0.0899587 20.1712 0.556931 17.7113 1.38721 15.3645C1.6583 14.5976 2.12184 13.9132 2.73338 13.377C3.34493 12.8407 4.08398 12.4705 4.87969 12.3019C5.6754 12.1333 6.50108 12.1719 7.27758 12.414C8.05408 12.6561 8.75536 13.0937 9.3142 13.6847L11.9578 16.4739C12.5993 17.1473 13.028 17.9948 13.1905 18.9105C13.353 19.8262 13.2421 20.7695 12.8715 21.6225C12.6672 22.0933 12.5113 22.5836 12.4063 23.0859C12.2183 23.9622 11.786 24.7672 11.1594 25.4079C10.5328 26.0486 9.73755 26.4987 8.86572 26.7062L5.85426 27.4281C5.48817 27.5149 5.11323 27.5588 4.737 27.5589ZM5.87294 14.5502C5.70241 14.5504 5.53235 14.5682 5.36546 14.6033C4.9644 14.6868 4.59169 14.8724 4.28344 15.1423C3.97519 15.4121 3.74184 15.7569 3.60598 16.1434C2.85584 18.2651 2.43397 20.4888 2.35497 22.7378C2.34091 23.1036 2.41245 23.4676 2.5639 23.8009C2.71535 24.1342 2.94253 24.4275 3.22734 24.6576C3.51351 24.8948 3.85112 25.0618 4.21327 25.1455C4.57543 25.2292 4.95212 25.2271 5.31333 25.1395L8.32382 24.4186C8.76194 24.3151 9.16185 24.0898 9.47737 23.7688C9.79289 23.4477 10.0111 23.0439 10.1069 22.604C10.2448 21.9447 10.4494 21.3011 10.7176 20.6832C10.9037 20.253 10.9589 19.7775 10.8763 19.3161C10.7937 18.8547 10.5771 18.4278 10.2534 18.0888L7.60783 15.2996C7.38511 15.0629 7.11629 14.8743 6.81792 14.7454C6.51955 14.6165 6.19796 14.5501 5.87294 14.5502Z" fill="#390D8E"/>
<path d="M16.8911 45.9629C16.289 45.9621 15.6925 45.848 15.1326 45.6265C10.8339 43.9366 7.11806 41.0353 4.4361 37.2747C3.98516 36.6415 3.6966 35.9073 3.59577 35.1365C3.49494 34.3657 3.58492 33.582 3.85781 32.8541C4.1307 32.1263 4.57814 31.4766 5.16084 30.9621C5.74354 30.4476 6.44367 30.084 7.19972 29.9034L10.4384 29.1254C11.1878 28.9462 11.9695 28.9519 12.7162 29.1421C13.4629 29.3323 14.1521 29.7012 14.7245 30.2171C15.358 30.7866 16.0807 31.2484 16.8636 31.5842C17.4721 31.8421 18.0205 32.2237 18.4738 32.7047C18.9272 33.1857 19.2758 33.7556 19.4974 34.3783L21.3503 39.6252C21.6018 40.3403 21.6788 41.1052 21.5749 41.8561C21.4709 42.607 21.1891 43.3222 20.7529 43.9421C20.3166 44.5621 19.7385 45.0688 19.0668 45.4201C18.3951 45.7715 17.6491 45.9572 16.8911 45.9619V45.9629ZM11.5428 31.3481C11.355 31.3481 11.1679 31.3702 10.9852 31.414L7.74753 32.189C7.3653 32.2796 7.0112 32.4628 6.71638 32.7224C6.42156 32.982 6.19507 33.31 6.05683 33.6777C5.9186 34.0454 5.87285 34.4415 5.92363 34.831C5.9744 35.2205 6.12014 35.5916 6.34801 35.9115C8.76584 39.3025 12.1162 41.9186 15.9922 43.4422C16.4201 43.6108 16.8876 43.6528 17.3387 43.5632C17.7899 43.4736 18.2058 43.2562 18.5368 42.9368C18.8679 42.6175 19.1002 42.2097 19.2059 41.7621C19.3117 41.3144 19.2866 40.8458 19.1335 40.412L17.2815 35.1661C17.1693 34.85 16.9927 34.5608 16.7627 34.3167C16.5328 34.0725 16.2547 33.8788 15.946 33.7479C14.9234 33.3106 13.9795 32.7086 13.1518 31.9658C12.7101 31.5684 12.137 31.3484 11.5428 31.3481Z" fill="#390D8E"/>
<path d="M18.1546 17.4442C17.5061 17.4458 16.864 17.3159 16.2671 17.0623C15.6702 16.8088 15.1309 16.4368 14.6819 15.969L9.82929 10.8548C9.34777 10.3474 8.98433 9.73994 8.76494 9.07576C8.54555 8.41158 8.47565 7.70712 8.56022 7.01278C8.64479 6.31844 8.88176 5.65136 9.25416 5.05926C9.62657 4.46716 10.1252 3.96467 10.7144 3.58773C13.6204 1.74415 16.8843 0.537746 20.2907 0.0481281C21.0962 -0.0673992 21.9179 0.0258868 22.677 0.319046C23.4361 0.612205 24.1072 1.09541 24.6259 1.72236C25.1447 2.3493 25.4937 3.09898 25.6396 3.89953C25.7855 4.70009 25.7233 5.52469 25.459 6.29432L22.7357 14.2292C22.4386 15.0853 21.9037 15.8391 21.1935 16.4021C20.4833 16.9651 19.6274 17.3139 18.726 17.4078L18.6808 17.4127C18.5061 17.433 18.3304 17.4435 18.1546 17.4442ZM16.3843 14.3492C16.643 14.6204 16.9613 14.8276 17.314 14.9544C17.6667 15.0813 18.044 15.1242 18.4162 15.0799L18.4801 15.073C18.9357 15.0252 19.3683 14.8487 19.7272 14.5641C20.0862 14.2795 20.3567 13.8986 20.5071 13.466L23.2324 5.52817C23.3698 5.14132 23.4036 4.72522 23.3303 4.32128C23.2569 3.91734 23.0791 3.53965 22.8144 3.22581C22.5526 2.90669 22.2126 2.66073 21.8276 2.51183C21.4426 2.36293 21.0257 2.31616 20.6173 2.37607C17.5426 2.81518 14.5961 3.9016 11.9723 5.56358C11.6773 5.75206 11.4276 6.00352 11.2413 6.2999C11.0549 6.59628 10.9365 6.93024 10.8944 7.27781C10.8504 7.62993 10.8851 7.98743 10.996 8.32452C11.1069 8.66161 11.2912 8.96989 11.5357 9.2271L16.3843 14.3492Z" fill="#390D8E"/>
<path d="M29.9666 46.2803C28.9833 46.2795 28.0242 45.9752 27.2203 45.4089C26.4164 44.8426 25.8069 44.042 25.475 43.1164L22.9179 35.869C22.5861 34.9385 22.5539 33.9275 22.8257 32.9777C23.0975 32.0279 23.6597 31.187 24.4335 30.5729C25.0346 30.0994 25.5646 29.542 26.0071 28.9176C26.386 28.3742 26.8745 27.9161 27.441 27.5728C28.0076 27.2295 28.6398 27.0085 29.2969 26.9241L41.1785 25.4429C41.9886 25.3409 42.8113 25.4497 43.5671 25.7587C44.3229 26.0676 44.9862 26.5664 45.4928 27.2067C45.9994 27.8471 46.3323 28.6073 46.4591 29.4139C46.586 30.2205 46.5026 31.0462 46.2169 31.8111C44.975 35.1307 43.0066 38.1308 40.4558 40.5917C37.905 43.0526 34.8364 44.9122 31.4743 46.0344C30.9885 46.1978 30.4792 46.2809 29.9666 46.2803ZM29.5732 29.256C29.2419 29.2997 28.9234 29.4122 28.6382 29.5863C28.3529 29.7604 28.1073 29.9923 27.917 30.267C27.3464 31.079 26.6602 31.8033 25.8802 32.4169C25.4915 32.7276 25.2096 33.152 25.0742 33.6309C24.9388 34.1097 24.9565 34.6189 25.1249 35.0871L27.682 42.3345C27.895 42.9278 28.3316 43.4143 28.8986 43.69C29.4655 43.9656 30.1178 44.0086 30.716 43.8097C33.747 42.7972 36.5133 41.12 38.8125 38.9007C41.1118 36.6814 42.8859 33.9762 44.0051 30.983C44.1504 30.6 44.1935 30.1858 44.1302 29.7811C44.0669 29.3763 43.8994 28.9951 43.6441 28.6747C43.389 28.3478 43.0532 28.093 42.6696 27.9353C42.2861 27.7777 41.8681 27.7227 41.4568 27.7758L29.5732 29.256Z" fill="#390D8E"/>
<path d="M30.2174 23.86C29.3425 23.8597 28.4847 23.6178 27.7384 23.1611C26.9922 22.7043 26.3866 22.0504 25.9884 21.2714C25.7748 20.8509 25.534 20.4448 25.2675 20.0558C24.8482 19.4476 24.5766 18.75 24.4741 18.0184C24.3717 17.2868 24.4413 16.5415 24.6774 15.8415L28.3379 5.17449C28.5646 4.5128 28.9346 3.90935 29.4216 3.40731C29.9086 2.90526 30.5005 2.51702 31.1549 2.27036C31.8094 2.02369 32.5103 1.92469 33.2075 1.98043C33.9047 2.03618 34.581 2.24529 35.188 2.59282C40.4588 5.60209 44.3809 10.5113 46.152 16.3165C46.353 16.9784 46.4068 17.6763 46.3096 18.3612C46.2125 19.046 45.9669 19.7014 45.5898 20.2814C45.2128 20.8613 44.7136 21.3519 44.127 21.7186C43.5405 22.0853 42.8809 22.3194 42.1944 22.4044L30.8036 23.8236C30.6091 23.8479 30.4134 23.8601 30.2174 23.86ZM32.8315 4.31492C32.3312 4.31503 31.8435 4.47152 31.4365 4.76248C31.0295 5.05344 30.7236 5.46433 30.5616 5.93769L26.902 16.6037C26.7839 16.9559 26.7496 17.3308 26.8018 17.6985C26.8541 18.0663 26.9914 18.4168 27.203 18.7222C27.5287 19.1973 27.8227 19.6934 28.0832 20.2072C28.3074 20.6447 28.6608 21.0026 29.0954 21.2322C29.53 21.4618 30.0247 21.5521 30.5124 21.4907L41.9033 20.0745C42.2523 20.0312 42.5876 19.9119 42.8855 19.725C43.1833 19.538 43.4366 19.2881 43.6274 18.9926C43.8166 18.7018 43.9398 18.373 43.9883 18.0294C44.0367 17.6858 44.0092 17.3358 43.9077 17.004C42.3087 11.7704 38.7709 7.34535 34.0176 4.63357C33.657 4.42529 33.248 4.3154 32.8315 4.31492Z" fill="#390D8E"/>
<path d="M24.0369 24.7173C23.9299 30.9923 14.5963 30.9913 14.4902 24.7173C14.5973 18.4434 23.9308 18.4443 24.0369 24.7173Z" fill="#390D8E"/>
</svg>
