<svg width="504" height="802" viewBox="0 0 504 802" fill="none" xmlns="http://www.w3.org/2000/svg">
<path d="M-10.3402 796.503C-20.7736 796.489 -31.1112 794.512 -40.8134 790.675C-115.307 761.389 -179.699 711.112 -226.175 645.944C-233.99 634.971 -238.99 622.248 -240.737 608.891C-242.485 595.534 -240.925 581.953 -236.196 569.34C-231.468 556.726 -223.714 545.467 -213.616 536.551C-203.518 527.636 -191.386 521.336 -178.284 518.205L-122.161 504.724C-109.174 501.618 -95.6274 501.718 -82.6879 505.013C-69.7485 508.309 -57.8047 514.702 -47.8863 523.642C-36.9068 533.51 -24.3846 541.513 -10.8174 547.332C-0.271591 551.802 9.23067 558.415 17.0874 566.749C24.9441 575.084 30.984 584.96 34.8243 595.752L66.9337 686.677C71.2919 699.069 72.6263 712.324 70.8254 725.336C69.0247 738.349 64.1409 750.742 56.5809 761.485C49.0209 772.229 39.0036 781.01 27.3631 787.098C15.7227 793.186 2.79602 796.405 -10.3402 796.486V796.503ZM-103.021 543.241C-106.276 543.242 -109.519 543.625 -112.685 544.383L-168.791 557.813C-175.415 559.383 -181.551 562.557 -186.66 567.056C-191.769 571.554 -195.694 577.24 -198.089 583.612C-200.485 589.983 -201.277 596.846 -200.397 603.597C-199.518 610.347 -196.992 616.777 -193.043 622.322C-151.144 681.085 -93.0859 726.42 -25.9176 752.822C-18.5015 755.744 -10.4015 756.472 -2.58319 754.919C5.23517 753.366 12.4423 749.598 18.1792 744.065C23.9162 738.531 27.941 731.464 29.7741 723.706C31.6073 715.949 31.1714 707.828 28.5183 700.312L-3.57401 609.403C-5.51878 603.927 -8.58037 598.914 -12.5646 594.684C-16.5488 590.453 -21.3688 587.096 -26.7187 584.827C-44.4386 577.25 -60.7957 566.817 -75.1384 553.945C-82.7935 547.059 -92.7246 543.246 -103.021 543.241Z" fill="#390D8E" fill-opacity="0.03"/>
<path d="M11.5526 302.294C0.31459 302.322 -10.8124 300.07 -21.1559 295.676C-31.4993 291.282 -40.8446 284.837 -48.6269 276.729L-132.718 188.105C-141.062 179.313 -147.36 168.785 -151.162 157.275C-154.964 145.766 -156.175 133.558 -154.71 121.526C-153.244 109.493 -149.138 97.9334 -142.684 87.6729C-136.231 77.4123 -127.59 68.7046 -117.379 62.1725C-67.0209 30.2247 -10.4603 9.31869 48.5705 0.83402C62.529 -1.16797 76.7678 0.448598 89.9223 5.52881C103.077 10.609 114.706 18.9826 123.696 29.8471C132.685 40.7115 138.734 53.7027 141.262 67.5757C143.79 81.4486 142.712 95.7383 138.133 109.075L90.9399 246.58C85.7917 261.417 76.5209 274.479 64.2142 284.235C51.9075 293.991 37.0748 300.036 21.4547 301.663L20.6708 301.749C17.6439 302.1 14.5998 302.282 11.5526 302.294ZM-19.1251 248.659C-14.6422 253.359 -9.12639 256.95 -3.01463 259.148C3.09711 261.346 9.63678 262.09 16.0862 261.322L17.1939 261.203C25.0887 260.375 32.5845 257.316 38.8049 252.384C45.0252 247.453 49.713 240.852 52.32 233.354L99.5467 95.7987C101.929 89.095 102.513 81.8842 101.243 74.8842C99.9718 67.8843 96.8898 61.3392 92.3033 55.9006C87.7661 50.3705 81.8753 46.1082 75.2037 43.5279C68.532 40.9477 61.3064 40.1372 54.2288 41.1753C0.947556 48.7847 -50.1131 67.6115 -95.5809 96.4123C-100.694 99.6786 -105.02 104.036 -108.25 109.172C-111.479 114.308 -113.532 120.095 -114.26 126.119C-115.023 132.221 -114.422 138.416 -112.5 144.257C-110.579 150.099 -107.385 155.441 -103.148 159.898L-19.1251 248.659Z" fill="#390D8E" fill-opacity="0.03"/>
<path d="M216.249 802C199.209 801.986 182.589 796.712 168.658 786.899C154.727 777.086 144.164 763.212 138.413 747.172L94.1007 621.581C88.3518 605.455 87.7931 587.935 92.503 571.477C97.2129 555.018 106.955 540.446 120.364 529.803C130.782 521.598 139.965 511.938 147.633 501.119C154.2 491.703 162.665 483.764 172.483 477.814C182.301 471.865 193.256 468.035 204.643 466.573L410.542 440.906C424.58 439.138 438.838 441.022 451.935 446.377C465.032 451.731 476.526 460.374 485.305 471.471C494.085 482.567 499.853 495.741 502.051 509.719C504.249 523.696 502.804 538.005 497.854 551.26C476.332 608.787 442.221 660.775 398.018 703.421C353.815 746.067 300.638 778.292 242.376 797.739C233.957 800.571 225.132 802.01 216.249 802ZM209.432 506.982C203.691 507.739 198.171 509.689 193.228 512.707C188.286 515.724 184.029 519.742 180.731 524.502C170.843 538.574 158.952 551.126 145.435 561.759C138.699 567.142 133.815 574.498 131.468 582.795C129.121 591.093 129.428 599.917 132.346 608.031L176.658 733.622C180.35 743.904 187.917 752.334 197.741 757.111C207.566 761.888 218.869 762.633 229.236 759.187C281.76 741.641 329.697 712.576 369.542 674.117C409.386 635.659 440.13 588.78 459.524 536.91C462.042 530.273 462.789 523.095 461.693 516.082C460.596 509.068 457.693 502.461 453.269 496.91C448.848 491.244 443.028 486.828 436.382 484.097C429.735 481.365 422.492 480.412 415.365 481.332L209.432 506.982Z" fill="#390D8E" fill-opacity="0.03"/>
<path d="M220.592 413.472C205.431 413.467 190.565 409.276 177.634 401.361C164.702 393.446 154.208 382.114 147.306 368.614C143.606 361.328 139.433 354.291 134.814 347.549C127.548 337.009 122.841 324.921 121.066 312.243C119.291 299.565 120.497 286.649 124.588 274.519L188.023 89.6683C191.95 78.2017 198.362 67.7444 206.801 59.0444C215.24 50.3444 225.497 43.6165 236.839 39.342C248.181 35.0675 260.327 33.3519 272.409 34.3179C284.491 35.2839 296.21 38.9076 306.729 44.9299C398.068 97.0782 466.034 182.151 496.726 282.751C500.208 294.221 501.14 306.314 499.458 318.182C497.775 330.051 493.518 341.408 486.984 351.458C480.451 361.508 471.799 370.009 461.635 376.364C451.471 382.719 440.041 386.775 428.144 388.248L230.75 412.841C227.38 413.263 223.988 413.474 220.592 413.472ZM265.893 74.7726C257.223 74.7746 248.771 77.4863 241.718 82.5284C234.665 87.5706 229.364 94.691 226.557 102.894L163.14 287.727C161.092 293.83 160.498 300.327 161.403 306.7C162.309 313.073 164.689 319.147 168.355 324.438C173.999 332.673 179.094 341.27 183.609 350.174C187.493 357.754 193.617 363.956 201.148 367.935C208.68 371.914 217.254 373.478 225.705 372.415L423.1 347.873C429.147 347.123 434.957 345.055 440.119 341.816C445.281 338.577 449.67 334.245 452.976 329.125C456.256 324.085 458.391 318.388 459.23 312.434C460.069 306.48 459.592 300.414 457.834 294.664C430.124 203.971 368.817 127.288 286.447 80.2946C280.198 76.6852 273.11 74.781 265.893 74.7726Z" fill="#390D8E" fill-opacity="0.03"/>
<path d="M113.491 428.329C111.636 537.069 -50.107 537.052 -51.9456 428.329C-50.0904 319.606 111.652 319.623 113.491 428.329Z" fill="#390D8E" fill-opacity="0.03"/>
</svg>
