<svg width="62" height="88" viewBox="0 0 62 88" fill="none" xmlns="http://www.w3.org/2000/svg">
<path d="M16.9253 65.1904C19.6468 68.5861 22.4187 72.8557 23.8692 75.4346C25.6357 78.7873 26.3681 81.051 27.6822 85.1057C28.4506 87.3265 29.1831 87.9999 30.7198 87.9999C32.4001 87.9999 33.1684 86.868 33.7573 85.1057C34.9852 81.3018 35.9331 78.4076 37.4339 75.6496C43.2217 64.7606 52.6573 57.0237 57.9712 46.4213C57.9712 46.4213 61.4683 39.9453 61.4683 30.8759C61.4683 22.4226 58.0215 16.5483 58.0215 16.5483L16.9468 65.2621L16.9253 65.1904Z" fill="#81898E"/>
<path d="M2.99436 45.2749C6.30474 52.7969 12.6167 59.3876 16.9253 65.1902L39.7605 38.1828C39.7605 38.1828 36.5362 42.3951 30.7126 42.3951C24.221 42.3951 18.9359 37.2372 18.9359 30.7181C18.9359 26.2336 21.6144 23.1245 21.6144 23.1245C4.81112 25.6175 5.74463 29.6794 2.94409 45.2606L2.99436 45.2749Z" fill="#8F9AA1"/>
<path d="M40.0478 1.41113C47.6595 3.85398 54.1223 9.00474 58 16.5267L39.7606 38.233C39.7606 38.233 42.439 35.1096 42.439 30.6394C42.439 23.9842 36.8092 18.9624 30.7342 18.9624C24.9679 18.9624 21.6863 23.1246 21.6863 23.1246C23.0866 19.9438 37.556 2.49286 40.0693 1.4183L40.0478 1.41113Z" fill="#ABB5BB"/>
<path d="M7.15942 10.9606C11.6977 5.57342 19.6542 0 30.6409 0C35.9476 0 39.976 1.4041 39.976 1.4041L21.6648 23.1104C20.4297 22.442 8.38017 13.0811 7.15942 10.9319V10.9606Z" fill="#848E94"/>
<path d="M2.99443 45.2751C2.99443 45.2751 0 39.3435 0 30.8043C0 22.7092 3.17395 15.617 7.18088 11.0322L21.6863 23.2107L3.01597 45.2751H2.99443Z" fill="#778187"/>
</svg>
