<svg width="63" height="68" viewBox="0 0 63 68" fill="none" xmlns="http://www.w3.org/2000/svg">
<path d="M44.8053 51.693C39.7095 51.7427 34.6117 51.4001 29.6165 50.1743C28.6401 49.9346 27.7084 49.5913 26.6454 49.5973C25.8711 49.6022 25.0656 48.9778 24.9867 47.9406C24.9251 47.117 25.9593 45.8452 26.7094 46.0345C27.3659 46.1982 27.434 45.492 27.9179 45.5651C28.0576 44.42 28.974 45.2573 29.4973 44.8786C31.7432 43.2509 34.4723 42.7816 36.9716 41.7583C39.4369 40.7464 42.0786 40.2985 44.6523 39.6369C47.4667 38.9117 50.2686 38.2501 53.1979 38.5751C55.2573 38.8023 57.1627 39.5266 58.2609 41.3811C60.3663 44.9495 58.4194 47.5916 55.7203 49.0214C52.3249 50.8222 48.5842 51.6573 44.8053 51.693ZM54.3093 42.2722C53.8019 42.0174 53.2691 41.8677 52.674 41.901C50.9139 42.001 49.1876 42.1198 47.469 42.6859C45.2986 43.402 43.0522 43.8552 40.9 44.6677C38.2183 45.6805 35.5055 46.612 32.8059 47.5768C32.799 47.6955 32.796 47.8146 32.7892 47.9333C35.743 47.7973 38.627 48.4704 41.6202 48.3558C44.111 48.2597 46.5741 48.1169 49.0465 47.7969C51.192 47.5196 53.0956 46.669 54.8647 45.4499C56.0419 44.6403 55.7529 42.994 54.3132 42.2726L54.3093 42.2722Z" fill="#FDB022"/>
<path d="M12.4133 38.6439C12.3099 38.4618 12.1292 38.322 11.9703 38.1779C11.163 37.4463 10.7159 36.5373 10.7074 35.4188C10.6895 32.7207 10.5053 30.0053 10.714 27.3274C10.9454 24.3703 10.7526 21.3773 11.4181 18.4548C12.084 15.5284 12.5796 12.5318 15.2168 10.3086C15.8973 9.46747 16.9725 8.92874 18.262 9.07422C20.6922 9.34722 22.9657 11.6514 23.2859 14.3473C23.654 17.4473 23.2756 20.5201 22.4809 23.5272C21.717 26.4094 20.5393 29.0625 19.0738 31.6784C17.6489 34.2208 15.8695 36.4437 14.2678 38.8204C13.5843 39.8331 13.0077 39.696 12.4115 38.6417L12.4133 38.6439ZM17.6429 27.0865C18.0086 26.0221 18.3331 24.908 18.7811 23.9169C19.3832 22.5823 19.4245 21.1604 19.8272 19.8079C20.3933 17.9085 20.2162 15.885 19.771 13.927C19.7209 13.7087 19.7391 13.4373 19.6142 13.2818C19.19 12.7466 18.9844 11.8144 18.1006 11.9803C17.1775 12.1512 16.8545 13.0876 16.5762 13.8416C15.359 17.1303 14.8443 20.6207 14.9008 24.0839C14.9405 26.6988 14.814 29.3449 15.184 32.0004C16.0873 30.3907 17.0452 28.8339 17.6429 27.0865Z" fill="#FDB022"/>
<path d="M31.2688 38.1466C28.3407 39.7987 24.9801 40.3712 21.8884 41.6544C20.9933 42.0256 20.1024 41.6047 19.6472 40.9356C19.2466 40.3457 19.5079 39.5054 19.9433 38.7619C20.5346 37.756 21.3511 36.948 21.963 35.9801C23.6426 33.3165 25.6679 30.9313 27.778 28.666C29.6655 26.6397 31.6688 24.6833 33.989 23.1322C36.1153 21.408 38.5213 20.2236 41.1836 19.7611C43.133 19.4216 44.7264 21.0388 44.7783 23.1472C44.8739 27.1614 42.973 30.1267 40.1313 32.5578C37.4417 34.8577 34.3025 36.4383 31.2667 38.1485L31.2688 38.1466ZM41.4122 24.8169C41.678 24.1529 41.6512 23.4109 41.2372 23.0281C40.9015 22.7182 40.2022 23.1819 39.8131 23.4601C38.1227 24.6693 36.4562 25.9249 34.8612 27.2671C32.6131 29.1595 30.6566 31.3784 28.7377 33.6165C27.9502 34.534 27.549 35.7876 26.5322 36.5897C29.7158 35.4088 32.5857 33.7258 35.3579 31.8632C37.9968 30.0889 40.1721 27.8895 41.4105 24.8147L41.4122 24.8169Z" fill="#FDB022"/>
</svg>
