<svg width="109" height="56" viewBox="0 0 109 56" fill="none" xmlns="http://www.w3.org/2000/svg">
<g clip-path="url(#clip0_831_1571)">
<path d="M94.7988 53.4907C67.7354 53.7823 40.673 53.784 13.6096 53.4907C7.61954 53.3774 1.71358 48.1878 1.71191 41.9737C1.44369 32.3884 1.44369 22.8322 1.71191 13.2477C1.71358 7.03353 7.62039 1.84394 13.6096 1.73066C40.673 1.43827 67.7354 1.43661 94.7988 1.73066C100.979 1.60071 106.449 7.2218 106.697 13.2486C106.965 22.8339 106.965 32.3899 106.697 41.9746C106.449 48.0013 100.979 53.6224 94.7988 53.4915V53.4907Z" fill="#899399"/>
<path d="M54.14 55.2206C40.5762 55.2206 27.03 55.1482 13.5929 55.0025C6.46159 54.8683 0.214914 48.7925 0.19992 41.9951C-0.06664 32.4506 -0.06664 22.7704 0.19992 13.2258C0.214914 6.42856 6.46159 0.353503 13.5804 0.219392C40.5711 -0.0729915 67.8912 -0.0729915 94.7912 0.218558C101.649 0.0961073 107.916 6.14201 108.207 13.1859C108.475 22.7646 108.475 32.4582 108.207 42.0169C107.919 49.0058 101.783 55.0049 95.0087 55.0049C94.9363 55.0049 94.8636 55.0049 94.7921 55.0033C81.29 55.1491 67.7054 55.2215 54.14 55.2215V55.2206ZM54.2674 3.02327C40.6987 3.02327 27.1201 3.09658 13.6254 3.24235C8.18756 3.34481 3.2237 8.11456 3.22205 13.2483V13.29C2.95631 22.7929 2.95631 32.429 3.22205 41.9318V41.9735C3.2237 47.1081 8.18839 51.8778 13.6379 51.9804C40.4896 52.2711 67.7952 52.2711 94.7829 51.9804H94.8071H94.8311C100.013 52.0829 104.966 47.2913 105.187 41.912C105.452 32.429 105.452 22.7929 105.187 13.29C104.969 7.99044 100.141 3.23902 95.0061 3.23902C94.9478 3.23902 94.8896 3.23902 94.8311 3.24067H94.8071H94.7829C81.3508 3.0949 67.8144 3.02244 54.2683 3.02244L54.2674 3.02327Z" fill="white"/>
<path d="M23.1368 35.8446C22.5996 35.508 22.089 35.2548 21.6191 35.094L19.8381 34.4868C18.8243 34.2002 18.1371 33.9469 17.7956 33.7336C17.4774 33.5355 17.3224 33.3056 17.3224 33.0297C17.3224 32.7915 17.4191 32.5941 17.6315 32.4443C17.8739 32.2735 18.1788 32.2002 18.6136 32.2002C19.6732 32.2002 20.412 32.7016 20.8727 33.7336L20.9268 33.8562L24.4096 31.9227L24.3588 31.8187C23.8289 30.7298 23.0509 29.887 22.0464 29.3137C21.046 28.7431 19.8839 28.4541 18.5919 28.4541C17.0609 28.4541 15.7647 28.879 14.7385 29.717C13.7047 30.5625 13.1808 31.6828 13.1808 33.0465C13.1808 34.3134 13.6048 35.3189 14.4419 36.0328C15.2666 36.7367 16.3953 37.289 17.7964 37.6747C18.7702 37.9412 19.4083 38.1327 19.6948 38.2444C20.3254 38.4826 20.6236 38.7825 20.6728 39.1424C20.7128 39.4415 20.6495 39.9645 18.9834 39.9887C17.5873 40.0095 16.6419 39.3856 16.0921 38.146L16.038 38.0237L12.4985 39.9719L12.5369 40.0721C12.9642 41.1906 13.728 42.0912 14.8076 42.7493C15.8805 43.4039 17.2491 43.7355 18.876 43.7355C20.6361 43.7355 22.073 43.3256 23.1469 42.5159C24.2329 41.7006 24.7845 40.5517 24.7845 39.1016C24.7845 38.3759 24.6478 37.732 24.3797 37.188C24.1073 36.6401 23.6891 36.1877 23.1368 35.8437V35.8446Z" fill="white"/>
<path d="M36.7285 28.8179H25.1489V32.598H28.8858V43.3696H32.994V32.598H36.7285V28.8179Z" fill="white"/>
<path d="M48.2891 32.598H52.0242V43.3696H56.1326V32.598H59.8693V28.8179H48.2891V32.598Z" fill="white"/>
<path d="M65.4345 28.8179H61.3262V43.3696H65.4345V28.8179Z" fill="white"/>
<path d="M91.8826 35.8582L86.687 28.8477H83.5474V43.3394H87.5951V36.3306L92.793 43.3394H95.9083V28.8477H91.8826V35.8582Z" fill="white"/>
<path d="M45.0893 28.8213H40.0622L35.1733 43.3497H39.6056L40.4711 40.5867L44.7228 39.8686L45.9382 43.3506H50.1657L45.0901 28.8222L45.0893 28.8213ZM41.4507 37.2937L42.8036 32.9465L44.0381 36.8864L41.4507 37.2937Z" fill="white"/>
<path d="M74.4768 28.4497C70.2659 28.4497 66.834 31.8817 66.834 36.0926C66.834 40.3032 70.2659 43.7352 74.4768 43.7352C78.6877 43.7352 82.1197 40.3032 82.1197 36.0926C82.1197 31.8817 78.6934 28.4497 74.4768 28.4497ZM74.4768 39.841C72.4077 39.841 70.7284 38.1617 70.7284 36.0926C70.7284 34.0232 72.4077 32.3439 74.4768 32.3439C76.546 32.3439 78.2253 34.0232 78.2253 36.0926C78.2253 38.1617 76.546 39.841 74.4768 39.841Z" fill="white"/>
<path d="M28.7933 25.342C29.9254 26.2699 31.4014 26.7406 33.1807 26.7406C34.9599 26.7406 36.4336 26.2699 37.5674 25.342C38.7092 24.4073 39.2875 23.1511 39.2857 21.6076V11.8765H35.1756V21.2602C35.1756 22.389 34.5234 22.9378 33.1807 22.9378C31.8379 22.9378 31.1848 22.389 31.1848 21.2602V11.8765H27.0747V21.6076C27.0747 23.1544 27.653 24.4106 28.7933 25.342Z" fill="white"/>
<path d="M45.1772 19.3624L50.3766 26.3737H53.4938V11.8779H49.4662V18.8901L44.2683 11.8779H41.1279V26.3737H45.1772V19.3624Z" fill="white"/>
<path d="M81.6742 22.7097H75.6016V20.8554H81.0268V17.2518H75.6016V15.52H81.5658V11.8765H71.5083V26.3739H81.6742V22.7097Z" fill="white"/>
<path d="M92.9288 21.3861C94.3466 20.4165 95.1895 18.8288 95.2012 17.1137C95.2069 15.7134 94.6738 14.3981 93.6859 13.411C92.7039 12.4231 91.3886 11.8774 89.9951 11.8774H83.3584V26.375H87.3952V22.5748L89.1162 22.4173L91.4436 26.375H95.8558L92.9288 21.387V21.3861ZM89.5468 19.0346L87.3952 19.247V15.4768H89.2528C90.1816 15.4768 91.0237 16.1441 91.1236 17.067C91.232 18.0608 90.5148 18.9305 89.5468 19.0346Z" fill="white"/>
<path d="M62.5382 26.7403C66.6549 26.7403 69.3188 24.3228 69.9627 21.0041C70.1003 20.2953 70.0936 18.8667 69.9627 17.9554C69.8521 17.1848 69.6896 16.6426 69.6896 16.6426L62.6206 17.7438L63.1038 20.8392L66.2718 20.3444C66.1601 21.6889 64.695 22.7126 63.1138 22.7826C61.0739 22.8725 59.1987 21.713 58.8839 19.6955C58.7315 18.7184 58.9679 17.7396 59.5521 16.9408C60.1351 16.1419 60.9939 15.618 61.9711 15.4655C62.8824 15.3231 63.8085 15.5238 64.5792 16.0311L64.6474 16.0761L67.9435 13.7562L67.8395 13.6554C66.1034 11.9778 63.7444 11.2281 61.3688 11.5996C57.2197 12.2477 54.3716 16.1503 55.0197 20.2994C55.606 24.0521 58.8547 26.7403 62.5399 26.7403H62.5382Z" fill="white"/>
<path d="M17.4046 26.3621V21.3166L21.2273 20.6685V26.3621H25.1466V11.8887H21.2273V17.294L17.4046 17.9437V11.8887H13.4854V26.3621H17.4046Z" fill="white"/>
</g>
<defs>
<clipPath id="clip0_831_1571">
<rect width="108.408" height="55.4036" fill="white"/>
</clipPath>
</defs>
</svg>
