<svg width="66" height="104" viewBox="0 0 66 104" fill="none" xmlns="http://www.w3.org/2000/svg">
<g clip-path="url(#clip0_831_1550)">
<path d="M56.9031 0C57.1272 0.0934363 57.3739 0.0708831 57.6061 0.111157C60.2147 0.568673 62.3653 2.7451 62.791 5.36453C62.8587 5.78983 62.8942 6.21513 62.8942 6.64526C62.8942 16.8604 62.8942 27.0756 62.8942 37.2924C62.8942 37.5437 62.8845 37.7934 62.8087 38.0318C62.5217 38.9098 61.577 39.3657 60.7064 39.0483C60.5177 38.9807 60.3388 38.8921 60.1598 38.8115C56.8032 37.2892 53.4466 35.7668 50.0851 34.2476C49.6498 34.0511 49.2564 33.8095 48.9194 33.4679C48.3407 32.8767 48.0408 32.1695 48.0134 31.3447C48.0085 31.2238 48.0134 31.103 48.0134 30.9822C48.0134 26.697 48.0134 22.4102 48.0134 18.1202C48.0085 16.6252 47.0235 15.3526 45.5757 14.9724C45.2758 14.8918 44.9711 14.8693 44.6567 14.8693C40.7939 14.8741 36.9342 14.8741 33.0746 14.8741C28.8796 14.8741 24.6894 14.8741 20.4976 14.8741C19.3546 14.8741 18.4501 15.3397 17.7859 16.2676C17.4086 16.7912 17.2168 17.3872 17.2119 18.0364C17.2119 21.1714 17.1587 24.3112 17.2297 27.4509C17.2877 30.0978 18.6146 32.0197 20.9942 33.1602C22.9482 34.0962 24.9377 34.9565 26.911 35.8522C38.5238 41.1136 50.1318 46.3766 61.7398 51.6397C61.8527 51.6896 61.9591 51.7379 62.0671 51.7959C62.762 52.1939 63.0618 53.0187 62.7845 53.7613C62.5024 54.5185 61.7221 54.9663 60.9337 54.7779C59.6875 54.483 58.4509 54.1592 57.2095 53.8467C52.3422 52.6143 47.4701 51.3787 42.5979 50.1479C37.0406 48.7367 31.4833 47.3303 25.9244 45.924C20.3396 44.5079 14.7501 43.0935 9.16695 41.6823C8.46725 41.5034 7.76915 41.3327 7.07429 41.1442C4.57857 40.4724 2.70034 38.296 2.38595 35.7394C2.34565 35.422 2.33275 35.1031 2.33275 34.7857C2.33275 25.3905 2.32308 15.9937 2.33759 6.59854C2.34242 3.88083 3.60157 1.89128 6.01667 0.642778C6.67929 0.302863 7.39189 0.109547 8.14157 0.0515523C8.20929 0.0467193 8.28023 0.0467173 8.33827 0.00161009" fill="#899399"/>
<path d="M0 72.154C0.0983454 71.9124 0.0935089 71.6482 0.11608 71.392C0.187018 70.5946 0.327281 69.8117 0.599746 69.0545C0.752907 68.6292 0.944763 68.2265 1.22206 67.8624C1.64769 67.3018 2.40543 67.1375 2.98744 67.4725C3.6017 67.827 3.87094 68.5922 3.60654 69.2333C3.58397 69.2913 3.5614 69.3445 3.53076 69.3944C2.97939 70.237 2.84557 71.1729 2.91167 72.1524C2.93908 72.5197 2.96165 72.887 3.05999 73.2495C3.35181 74.324 4.07247 74.9603 5.11719 75.2648C5.77981 75.4581 6.45694 75.4984 7.13891 75.4839C7.86924 75.471 8.59636 75.413 9.30412 75.21C9.66203 75.1069 10.0038 74.9732 10.3085 74.7493C11.0389 74.2209 11.084 73.3558 10.4117 72.7517C10.1973 72.5584 9.95062 72.4069 9.68944 72.2732C9.18804 72.009 8.67697 71.7545 8.17073 71.4935C7.55164 71.1762 7.26466 70.6204 7.37752 69.9615C7.46296 69.446 7.87892 69.0658 8.39966 69.0255C8.65439 69.003 8.90106 69.0304 9.13483 69.1335C9.34604 69.2237 9.55563 69.3123 9.76683 69.4105C10.6326 69.8278 11.5499 70.0324 12.506 70.1178C13.2137 70.1806 13.9263 70.1983 14.6357 70.1806C15.6837 70.15 16.5543 69.4186 16.7832 68.4069C16.8332 68.1878 16.8283 67.9687 16.8283 67.748C16.8283 64.5905 16.8283 61.433 16.8283 58.2707C16.8283 58.0596 16.8412 57.8534 16.909 57.6521C17.1427 57.0028 17.8005 56.6226 18.5131 56.7258C19.1854 56.824 19.6868 57.3701 19.732 58.0467C19.7368 58.137 19.732 58.2256 19.732 58.3158C19.732 61.4556 19.732 64.5953 19.732 67.7335C19.732 67.9526 19.7271 68.1717 19.7771 68.3924C19.9915 69.3783 20.8476 70.1161 21.8569 70.1709C22.3276 70.1983 22.7984 70.1886 23.2692 70.1838C24.5734 70.1661 25.5553 69.1753 25.5633 67.8737C25.5682 66.9329 25.5682 65.9921 25.5633 65.0529C25.5585 64.7564 25.6214 64.4794 25.7826 64.2248C26.1099 63.7061 26.7499 63.4451 27.3465 63.5933C27.951 63.7496 28.4396 64.2925 28.4492 64.9063C28.467 66.0533 28.4944 67.2083 28.4363 68.3505C28.3605 69.7472 27.814 70.9474 26.6967 71.8399C25.9438 72.444 25.07 72.771 24.1156 72.8693C23.1063 72.9772 22.0987 72.9724 21.0894 72.8645C19.9867 72.7485 19.0597 72.2958 18.3906 71.3775C18.36 71.3373 18.3277 71.3018 18.3003 71.2696C18.2197 71.2793 18.1971 71.3405 18.1617 71.3856C17.499 72.3038 16.5752 72.7469 15.4676 72.8773C14.8179 72.9498 14.1682 72.9176 13.5185 72.9305C13.4282 72.9305 13.3395 72.9128 13.2541 72.9482C13.2315 73.0014 13.2541 73.0465 13.2718 73.0916C13.72 74.4529 13.3572 75.6128 12.3657 76.5939C11.666 77.2882 10.8019 77.7006 9.87001 77.968C8.57862 78.3434 7.2566 78.4513 5.92168 78.3434C4.935 78.2677 3.98057 78.0566 3.09385 77.6136C1.30106 76.7131 0.346629 75.2406 0.112857 73.2656C0.0902862 73.0723 0.0999592 72.8709 0.00161379 72.6921" fill="#899399"/>
<path d="M49.387 70.185C49.7724 70.185 50.0819 70.1898 50.3915 70.185C50.6059 70.185 50.6107 70.1801 50.6107 69.9739C50.6155 69.4004 50.5575 68.8366 50.4043 68.2808C50.3286 68.0037 50.2157 67.7347 50.0545 67.493C49.7901 67.0984 49.4273 66.8567 48.9614 66.7633C48.647 66.7004 48.3246 66.7053 48.007 66.7633C47.325 66.8841 46.8413 67.3368 46.7156 68.0134C46.5012 69.1604 46.9268 69.9208 48.1456 70.127C48.5842 70.2027 49.0227 70.1753 49.387 70.185ZM62.6088 68.7609C62.6185 68.3581 62.5685 67.986 62.4251 67.6284C62.2509 67.2079 61.9543 66.9115 61.5061 66.7955C60.758 66.607 60.1035 66.7649 59.5795 67.3593C59.3054 67.6735 59.1216 68.0359 58.9701 68.4161C58.7814 68.8688 58.6025 69.3215 58.4235 69.7774C58.3429 69.9836 58.3429 69.9884 58.5219 70.1125C59.2619 70.636 60.0906 70.8471 60.987 70.7617C61.6818 70.694 62.2203 70.3718 62.4702 69.6823C62.5766 69.3779 62.6217 69.0653 62.6088 68.7609ZM65.1271 69.1539C65.0562 69.2248 65.0772 69.3247 65.0739 69.4085C65.0417 70.0899 64.8547 70.7295 64.5451 71.3304C63.9002 72.5885 62.8281 73.27 61.4658 73.5245C60.5162 73.6985 59.5746 73.6631 58.6605 73.3135C57.9753 73.0541 57.3836 72.6594 56.9177 72.0859C56.8194 71.9651 56.7517 71.9296 56.6082 72.0279C55.7214 72.6288 54.7219 72.8705 53.6626 72.9236C53.5949 72.9284 53.524 72.9333 53.4514 72.9285C53.308 72.9156 53.2451 72.9639 53.2273 73.1218C53.1822 73.5293 53.1064 73.9321 52.9936 74.3268C52.5679 75.8588 51.7248 77.0719 50.2867 77.8242C49.5466 78.2044 48.7583 78.4106 47.9377 78.496C46.9961 78.5942 46.0594 78.554 45.1276 78.4025C44.5052 78.2994 44.02 77.5922 44.1006 76.951C44.1731 76.3872 44.768 75.7638 45.4984 75.8814C46.1658 75.9845 46.8301 76.0022 47.5023 75.9394C47.7797 75.912 48.0586 75.8636 48.3278 75.7863C49.4209 75.4818 50.0351 74.7295 50.2867 73.655C50.3399 73.4311 50.3898 73.2071 50.3802 72.9736C50.1657 72.8753 49.932 72.9333 49.7079 72.9333C48.905 72.9333 48.1086 72.9285 47.3186 72.7545C47.0767 72.7045 46.8349 72.6385 46.6011 72.5483C45.4274 72.1181 44.6955 71.2901 44.4407 70.0722C44.186 68.872 44.2344 67.6799 44.66 66.5297C45.1792 65.1233 46.1578 64.205 47.6491 63.9135C49.3306 63.5816 50.9976 64.0971 52.0182 65.7951C52.5373 66.6553 52.8162 67.5994 52.9952 68.5804C53.0806 69.0412 53.1435 69.5067 53.1741 69.9739C53.1838 70.1221 53.2193 70.193 53.3805 70.1882C53.7207 70.1785 54.0625 70.1785 54.3978 70.1028C54.8637 70.0045 55.2442 69.7661 55.5312 69.3779C55.7859 69.0283 55.9713 68.6433 56.1277 68.2405C56.3825 67.5687 56.6614 66.9066 57.0193 66.2784C57.2337 65.9159 57.4723 65.5711 57.7545 65.257C58.7492 64.1503 60.0132 63.7524 61.4609 63.9038C63.4424 64.1148 64.6161 65.5744 65.0014 67.2804C65.0643 67.5446 65.0288 67.8185 65.1223 68.073" fill="#899399"/>
<path d="M31.1222 63.5784C31.1222 61.8579 31.1222 60.139 31.1222 58.4185C31.1222 58.2799 31.1271 58.1414 31.1351 58.0012C31.198 57.2537 31.8477 56.6802 32.6055 56.7028C33.3713 56.7253 33.9904 57.3117 34.0258 58.056C34.0307 58.1543 34.0258 58.2574 34.0258 58.3556C34.0258 61.692 34.0258 65.0331 34.0258 68.3695C34.0258 68.603 34.0307 68.8302 34.0887 69.0541C34.2016 69.502 34.466 69.8193 34.8948 69.9949C35.1544 70.1028 35.4285 70.1608 35.7106 70.1689C36.1008 70.1818 36.4909 70.1915 36.8811 70.1818C38.1451 70.1592 39.1349 69.1701 39.1495 67.9023C39.1624 66.984 39.1543 66.0609 39.1543 65.1443C39.1543 64.9429 39.172 64.7464 39.2349 64.5531C39.4687 63.8813 40.149 63.4737 40.8745 63.572C41.5114 63.6622 42.045 64.2389 42.0482 64.9332C42.0611 66.1109 42.1111 67.2933 42.0208 68.4661C41.8499 70.6925 40.4167 72.3485 38.216 72.7787C36.8488 73.0477 35.4688 73.0155 34.1064 72.6885C33.6679 72.5805 33.2552 72.4017 32.8699 72.1601C31.9154 71.5559 31.4044 70.6603 31.2109 69.5664C31.1303 69.1314 31.1254 68.6933 31.1206 68.2535C31.1222 66.6956 31.1222 65.1378 31.1222 63.5784Z" fill="#899399"/>
<path d="M6.39236 81.2801C6.38752 82.1758 5.59914 82.9377 4.68018 82.9377C3.76121 82.9426 2.99863 82.1725 3.01314 81.2494C3.02282 80.3441 3.79669 79.5885 4.69469 79.6063C5.62172 79.6224 6.3972 80.3844 6.39236 81.2801Z" fill="#899399"/>
<path d="M23.8465 75.854C23.8562 76.7674 23.1162 77.5198 22.2069 77.5342C21.2831 77.5471 20.4673 76.769 20.4673 75.8637C20.4721 74.976 21.2605 74.206 22.1795 74.2028C23.0855 74.1915 23.8384 74.9406 23.8465 75.854Z" fill="#899399"/>
<path d="M7.13867 81.2703C7.13867 80.3439 7.84644 79.6045 8.74283 79.6045C9.6618 79.5997 10.4502 80.3617 10.4598 81.2574C10.4647 82.1708 9.67631 82.9408 8.74283 82.9376C7.84644 82.936 7.13867 82.1982 7.13867 81.2703Z" fill="#899399"/>
<path d="M39.3203 75.9846C39.3154 76.9205 38.6125 77.6423 37.7016 77.6326C36.7827 77.6229 36.0523 76.8851 36.0572 75.962C36.062 75.0486 36.8052 74.3092 37.7242 74.314C38.6254 74.314 39.3251 75.0438 39.3203 75.9846Z" fill="#899399"/>
<path d="M24.6527 75.8348C24.6704 74.9295 25.4281 74.1772 26.2971 74.1997C27.2161 74.2271 27.9368 74.9971 27.9158 75.9283C27.8932 76.8143 27.1177 77.5586 26.2343 77.5312C25.3524 77.5103 24.6349 76.7434 24.6527 75.8348Z" fill="#899399"/>
<path d="M55.8229 103.102C55.7246 103.027 55.5988 103.022 55.4908 102.986C54.8943 102.78 54.5235 102.203 54.5847 101.585C54.6524 100.949 55.1038 100.475 55.7358 100.39C55.8745 100.372 56.0131 100.367 56.1534 100.357C56.6645 100.327 57.0675 100.098 57.3722 99.6904C57.5206 99.4971 57.6463 99.2957 57.7527 99.0814C57.9494 98.6867 58.138 98.2937 58.3396 97.9038C58.4105 97.7653 58.4153 97.6525 58.3492 97.5091C57.1836 94.9557 56.1034 92.3637 54.9571 89.8055C54.8491 89.5541 54.7685 89.3044 54.7427 89.0306C54.6798 88.2686 55.2183 87.7273 55.8277 87.5743C56.4726 87.4083 57.3061 87.6999 57.6028 88.4796C58.2654 90.213 58.978 91.9287 59.6729 93.6476C59.718 93.7555 59.7406 93.8715 59.826 93.9618C59.9244 93.8941 59.9341 93.791 59.9695 93.7024C60.6467 91.9738 61.327 90.2452 62.0041 88.5167C62.2589 87.8723 63.0569 87.4277 63.7292 87.5581C64.366 87.679 64.8046 88.1945 64.8175 88.8437C64.8271 89.1031 64.7901 89.3624 64.6869 89.6057C63.4229 92.5747 62.2089 95.5614 60.9223 98.5176C60.5951 99.257 60.2226 99.9771 59.7922 100.663C59.5907 100.973 59.3714 101.268 59.1473 101.564C58.4524 102.464 57.5286 102.935 56.4081 103.046C56.3146 103.059 56.2066 103.033 56.1212 103.104" fill="#899399"/>
<path d="M7.7805 90.5834C7.88368 90.5302 7.92882 90.4223 7.9917 90.3321C9.36369 88.4021 10.7341 86.4722 12.1061 84.5406C12.227 84.3667 12.3576 84.2007 12.4866 84.0396C12.8945 83.5338 13.499 83.4758 14.0101 83.6594C14.6147 83.8834 15.0097 84.4391 15.0097 85.0884C15.0145 89.0868 15.0048 93.082 15.0194 97.082C15.0194 97.8746 14.3342 98.627 13.4958 98.6141C12.6575 98.6012 12.0077 97.9471 12.0126 97.0869C12.0255 94.7767 12.0432 92.4698 12.0625 90.1581C12.0625 90.0598 12.0625 89.9615 12.0625 89.8617C11.9545 89.8391 11.9368 89.9293 11.9062 89.9777C10.9969 91.2584 10.0908 92.5391 9.18474 93.8198C9.00578 94.0744 8.79458 94.3031 8.52534 94.469C7.89819 94.8541 7.18075 94.7687 6.66161 94.2451C6.5407 94.1243 6.44719 93.9809 6.34723 93.8424C5.48147 92.5923 4.61732 91.3438 3.75156 90.0985C3.68868 90.0083 3.64838 89.9052 3.52746 89.8343C3.47748 89.9503 3.50005 90.0582 3.50005 90.1661C3.50005 92.4328 3.49522 94.7026 3.50489 96.9741C3.50489 97.3914 3.40655 97.7619 3.13247 98.0808C2.7149 98.5593 2.07969 98.7349 1.49606 98.5335C0.926949 98.337 0.531958 97.7989 0.491653 97.1626C0.486816 97.0949 0.491653 97.024 0.491653 96.9564C0.491653 93.0466 0.491653 89.1367 0.486816 85.2317C0.486816 84.7839 0.589998 84.3763 0.899544 84.0445C1.44125 83.4709 2.29411 83.4081 2.90675 83.9011C3.06314 84.0316 3.18889 84.183 3.30497 84.3489C4.73501 86.3514 6.16022 88.3522 7.59025 90.3546C7.64507 90.4352 7.69021 90.5286 7.7805 90.5834Z" fill="#899399"/>
<path d="M33.3824 93.3282C33.3872 93.5924 33.3695 93.9725 33.4275 94.3495C33.5839 95.4015 34.211 96.0555 35.2654 96.1764C36.3682 96.302 37.3758 95.8719 37.7757 94.6186C37.8869 94.2513 37.9466 93.8791 37.9723 93.4989C38.0175 92.716 37.9627 91.9411 37.6499 91.2065C37.2323 90.2351 36.3456 89.7599 35.2155 90.0112C34.2788 90.2222 33.7677 90.8843 33.4984 91.7575C33.3501 92.2359 33.3775 92.7273 33.3824 93.3282ZM33.4082 88.7337C33.4533 88.7031 33.4839 88.6934 33.5017 88.6708C35.1735 86.91 38.8268 87.0534 40.2569 89.9016C40.5712 90.5235 40.7631 91.1823 40.8534 91.8718C40.9969 92.9383 40.9743 94.0032 40.697 95.0519C40.3568 96.3326 39.6749 97.3765 38.4915 98.0209C37.3307 98.6573 36.1022 98.7732 34.8301 98.4285C34.2917 98.2851 34.0321 98.1144 33.4146 97.6037C33.334 97.6262 33.334 97.7068 33.3066 97.7599C33.0019 98.3914 32.3167 98.7265 31.6347 98.5799C30.9447 98.4317 30.4868 97.863 30.4868 97.1333C30.4868 92.8739 30.4868 88.6145 30.4868 84.3567C30.4868 84.2987 30.4868 84.2358 30.4917 84.1778C30.5723 83.5592 30.8899 83.1114 31.4816 82.8971C32.3473 82.583 33.305 83.2419 33.3727 84.1827C33.3824 84.2809 33.3775 84.384 33.3775 84.4823C33.3775 85.7904 33.3775 87.1018 33.3775 88.4099C33.3775 88.5097 33.3598 88.608 33.4082 88.7337Z" fill="#899399"/>
<path d="M25.1815 93.0513C25.1815 93.0014 25.1815 92.9531 25.1815 92.9031C25.1637 92.3393 25.1186 91.7835 24.9122 91.2551C24.7188 90.7622 24.4108 90.3691 23.9126 90.1532C23.4064 89.9245 22.8679 89.8938 22.3311 90.0002C21.6185 90.1484 21.1574 90.6091 20.8478 91.2455C20.6334 91.6804 20.5334 92.1508 20.498 92.6293C20.4351 93.417 20.4931 94.1871 20.8156 94.9185C21.0268 95.4018 21.3573 95.7836 21.8426 96.0075C23.1243 96.5939 24.5543 95.9624 24.9751 94.6188C25.1379 94.1082 25.1734 93.5846 25.1815 93.0513ZM22.7938 98.6092C21.9699 98.6189 21.2202 98.5109 20.5028 98.229C19.2163 97.7232 18.3521 96.792 17.9039 95.4968C17.3751 93.9422 17.3654 92.3715 17.9136 90.8218C18.5327 89.0658 19.7967 88.0138 21.6201 87.6465C22.6325 87.4452 23.6499 87.4726 24.6446 87.7722C26.1859 88.2329 27.2129 89.2462 27.7239 90.7589C28.2576 92.3441 28.235 93.9471 27.6385 95.5145C27.0162 97.1577 25.7925 98.1259 24.0755 98.4835C23.6353 98.5738 23.1871 98.6173 22.7938 98.6092Z" fill="#899399"/>
<path d="M49.9307 90.73C49.9307 88.6019 49.9403 86.4754 49.9258 84.3489C49.921 83.8334 50.2402 83.1536 50.948 82.9023C51.8621 82.5801 52.8214 83.2518 52.8746 84.2458C52.8794 84.3264 52.8746 84.4069 52.8746 84.4875C52.8746 88.6615 52.8746 92.8355 52.8794 97.0144C52.8794 97.2463 52.8617 97.4719 52.7762 97.691C52.5215 98.3402 51.8492 98.7172 51.1576 98.5915C50.4498 98.4658 49.9339 97.8795 49.9291 97.1755C49.9275 95.0248 49.9307 92.8806 49.9307 90.73Z" fill="#899399"/>
<path d="M43.5479 93.0561V89.1865C43.5479 88.9755 43.5527 88.7693 43.6107 88.5647C43.7945 87.9284 44.391 87.4805 45.0891 87.5353C45.7888 87.5852 46.3257 88.1442 46.3886 88.8434C46.4015 88.9642 46.3983 89.085 46.3983 89.2059C46.3983 91.7802 46.3983 94.361 46.3983 96.9401C46.3983 97.1512 46.3983 97.3574 46.3402 97.562C46.1516 98.2337 45.547 98.6591 44.8473 98.6059C44.1879 98.5527 43.6414 98.0147 43.5656 97.3429C43.5527 97.2043 43.5479 97.0658 43.5479 96.9256C43.5479 95.6352 43.5479 94.3449 43.5479 93.0561Z" fill="#899399"/>
<path d="M44.9712 82.878C45.9031 82.8877 46.6657 83.6481 46.656 84.5534C46.6463 85.4668 45.8531 86.2546 44.9438 86.2514C44.0652 86.2466 43.3219 85.4362 43.3397 84.4954C43.3526 83.603 44.0926 82.8684 44.9712 82.878Z" fill="#899399"/>
</g>
<defs>
<clipPath id="clip0_831_1550">
<rect width="65.1272" height="103.104" fill="white"/>
</clipPath>
</defs>
</svg>
