<svg width="58" height="57" viewBox="0 0 58 57" fill="none" xmlns="http://www.w3.org/2000/svg">
<path d="M35.0662 5.2197C39.3079 0.958921 46.3862 5.38896 44.408 11.0663C42.3234 17.0489 44.9857 23.6506 50.637 26.5142C55.9998 29.2315 53.974 37.3325 47.9637 37.2061C41.6297 37.0722 36.173 41.6443 35.1959 47.9038C34.2688 53.8439 25.938 54.4207 24.2011 48.6653C22.371 42.6 16.3364 38.8232 10.0812 39.8283C4.14556 40.7817 1.02304 33.0367 5.9604 29.6065C11.1633 25.9917 12.8904 19.0854 10.0015 13.447C7.26072 8.09652 13.6615 2.73364 18.4495 6.36932C23.4951 10.2005 30.5965 9.70952 35.0662 5.2197Z" fill="#9964FF" stroke="#FFFAEB" stroke-width="7"/>
</svg>
