<svg width="118" height="115" viewBox="0 0 118 115" fill="none" xmlns="http://www.w3.org/2000/svg">
<path d="M75.2245 6.67649C83.105 -1.23959 96.2564 6.99123 92.581 17.5393L88.5473 29.1182C85.6639 37.3936 89.3456 46.526 97.1628 50.4869L108.1 56.0294C118.064 61.0781 114.3 76.1292 103.133 75.8933L90.8738 75.6333C82.1124 75.4482 74.5652 81.773 73.2137 90.4315L71.3228 102.546C69.6001 113.583 54.1223 114.654 50.8958 103.96L47.3534 92.221C44.822 83.8313 36.4754 78.6074 27.8231 79.9977L15.7175 81.9431C4.689 83.7152 -1.11303 69.3261 8.06037 62.9529L18.13 55.9569C25.327 50.9568 27.7159 41.4037 23.7199 33.6044L18.1287 22.6928C13.0353 12.7518 24.9273 2.78731 33.8233 9.5423L43.589 16.9572C50.5683 22.2567 60.3915 21.5765 66.5741 15.366L75.2245 6.67649Z" fill="#FDC700" stroke="#FFFAEB" stroke-width="7"/>
</svg>
