<svg width="89" height="89" viewBox="0 0 89 89" fill="none" xmlns="http://www.w3.org/2000/svg">
<g clip-path="url(#clip0_831_1587)">
<path d="M44.3112 87.8905L56.6721 18.5865C68.441 18.5865 72.1667 19.8719 72.689 25.1174C72.689 25.1174 80.593 22.1646 84.5624 16.2243C69.033 9.03335 53.3991 8.7207 53.3991 8.7207L44.2764 19.8024H44.3112L35.2234 8.7207C35.2234 8.7207 19.5895 9.03335 4.06006 16.2243C8.02946 22.1994 15.9335 25.1174 15.9335 25.1174C16.4557 19.8719 20.1814 18.5865 31.8807 18.5518L44.3112 87.8905Z" fill="#899399"/>
<path d="M44.3111 5.52459C56.8809 5.42037 71.2613 7.46996 85.9899 13.8619C87.9746 10.3185 88.462 8.7553 88.462 8.7553C72.3755 2.39809 57.2987 0.244282 44.3111 0.174805C31.3583 0.244282 16.2815 2.39809 0.160156 8.7553C0.160156 8.7553 0.891364 10.6659 2.63233 13.8619C17.3609 7.43522 31.7413 5.42037 44.3111 5.52459Z" fill="#899399"/>
</g>
<defs>
<clipPath id="clip0_831_1587">
<rect width="88.6501" height="88.063" fill="white"/>
</clipPath>
</defs>
</svg>
