<svg width="63" height="66" viewBox="0 0 63 66" fill="none" xmlns="http://www.w3.org/2000/svg">
<path d="M17.7297 50.6575C22.8255 50.7063 27.9234 50.3705 32.9185 49.1692C33.895 48.9343 34.8267 48.5979 35.8896 48.6038C36.6639 48.6086 37.4695 47.9968 37.5484 46.9803C37.61 46.1732 36.5758 44.9269 35.8257 45.1124C35.1691 45.2728 35.1011 44.5808 34.6172 44.6524C34.4775 43.5302 33.5611 44.3508 33.0378 43.9797C30.7918 42.3846 28.0628 41.9247 25.5635 40.9219C23.0982 39.9303 20.4565 39.4914 17.8827 38.843C15.0683 38.1323 12.2664 37.4841 9.3371 37.8025C7.27776 38.0252 5.37232 38.735 4.27414 40.5523C2.16869 44.0491 4.11568 46.6383 6.81477 48.0395C10.2101 49.8041 13.9509 50.6226 17.7297 50.6575ZM8.22572 41.4256C8.73315 41.1758 9.26594 41.0291 9.86107 41.0618C11.6211 41.1597 13.3474 41.2761 15.0661 41.831C17.2365 42.5326 19.4828 42.9768 21.635 43.773C24.3168 44.7655 27.0295 45.6783 29.7291 46.6238C29.736 46.7402 29.739 46.8568 29.7459 46.9731C26.792 46.8399 23.908 47.4995 20.9148 47.3872C18.424 47.293 15.9609 47.153 13.4886 46.8395C11.343 46.5677 9.43946 45.7342 7.67035 44.5395C6.49312 43.7462 6.78213 42.1329 8.22185 41.4259L8.22572 41.4256Z" fill="#FDB022"/>
<path d="M50.1233 37.8705C50.2267 37.692 50.4074 37.555 50.5663 37.4138C51.3736 36.6969 51.8208 35.8061 51.8293 34.71C51.8471 32.066 52.0314 29.4051 51.8226 26.7808C51.5912 23.883 51.784 20.9499 51.1185 18.0861C50.4526 15.2183 49.957 12.2817 47.3199 10.1031C46.6394 9.27883 45.5641 8.7509 44.2746 8.89346C41.8444 9.16098 39.5709 11.419 39.2507 14.0609C38.8826 17.0988 39.261 20.1099 40.0557 23.0567C40.8196 25.8812 41.9974 28.4811 43.4628 31.0446C44.8877 33.536 46.6671 35.7144 48.2688 38.0434C48.9523 39.0358 49.5289 38.9015 50.1251 37.8683L50.1233 37.8705ZM44.8937 26.5448C44.528 25.5017 44.2035 24.4099 43.7556 23.4386C43.1534 22.1308 43.1121 20.7374 42.7094 19.412C42.1433 17.5507 42.3205 15.5677 42.7657 13.649C42.8157 13.4351 42.7975 13.1691 42.9224 13.0167C43.3466 12.4922 43.5522 11.5787 44.436 11.7413C45.3591 11.9087 45.6821 12.8264 45.9604 13.5653C47.1776 16.7881 47.6923 20.2085 47.6358 23.6023C47.5962 26.1648 47.7226 28.7579 47.3526 31.3601C46.4493 29.7827 45.4914 28.257 44.8937 26.5448Z" fill="#FDB022"/>
<path d="M31.2663 37.3824C34.1944 39.0014 37.555 39.5624 40.6467 40.8199C41.5418 41.1836 42.4327 40.7712 42.8879 40.1155C43.2885 39.5374 43.0273 38.714 42.5919 37.9854C42.0005 36.9996 41.184 36.2078 40.5721 35.2593C38.8926 32.6491 36.8672 30.3117 34.7571 28.0918C32.8696 26.1061 30.8663 24.1889 28.5462 22.6689C26.4198 20.9793 24.0138 19.8186 21.3515 19.3654C19.4021 19.0327 17.8087 20.6174 17.7568 22.6837C17.6613 26.6174 19.5621 29.5232 22.4038 31.9056C25.0935 34.1594 28.2326 35.7083 31.2684 37.3842L31.2663 37.3824ZM21.1229 24.3198C20.8571 23.6691 20.8839 22.942 21.298 22.5669C21.6336 22.2632 22.3329 22.7176 22.722 22.9902C24.4124 24.1752 26.079 25.4056 27.674 26.7209C29.922 28.5754 31.8785 30.7498 33.7974 32.943C34.5849 33.8422 34.9861 35.0706 36.0029 35.8567C32.8194 34.6995 29.9494 33.0502 27.1772 31.2249C24.5383 29.4862 22.363 27.3309 21.1246 24.3177L21.1229 24.3198Z" fill="#FDB022"/>
</svg>
