<svg width="262" height="425" viewBox="0 0 262 425" fill="none" xmlns="http://www.w3.org/2000/svg">
<path d="M61.8354 -18V33.5593C61.8354 37.4534 64.8796 40.6102 68.6349 40.6102H116.656C120.411 40.6102 123.455 43.7669 123.455 47.661V97.4576C123.455 101.352 126.5 104.508 130.255 104.508H178.276C182.031 104.508 185.075 107.665 185.075 111.559V161.356C185.075 165.25 188.119 168.407 191.875 168.407H239.896C243.651 168.407 246.695 171.564 246.695 175.458V225.254C246.695 229.148 249.739 232.305 253.495 232.305H303.216M0.215515 -18V33.5593C0.215515 37.4534 3.25973 40.6102 7.01495 40.6102H55.036C58.7912 40.6102 61.8354 43.7669 61.8354 47.661V97.4576C61.8354 101.352 64.8796 104.508 68.6349 104.508H116.656C120.411 104.508 123.455 107.665 123.455 111.559V161.356C123.455 165.25 120.411 168.407 116.656 168.407H68.6349C64.8796 168.407 61.8354 165.25 61.8354 161.356V110.678L61.7759 110.262C61.3197 107.068 58.7056 104.683 55.5928 104.621L49.9364 104.508H7.01495C3.25973 104.508 0.215515 107.665 0.215515 111.559V161.356C0.215515 165.25 3.25973 168.407 7.01495 168.407H55.461L57.0751 168.518C59.7539 168.704 61.8354 171.011 61.8354 173.795V179.203M61.8354 173.695V225.254C61.8354 229.148 64.8796 232.305 68.6349 232.305H116.656C120.411 232.305 123.455 235.462 123.455 239.356V289.153C123.455 293.047 126.5 296.203 130.255 296.203H178.276C182.031 296.203 185.075 299.36 185.075 303.254V353.051C185.075 356.945 188.119 360.102 191.875 360.102H239.896C243.651 360.102 246.695 363.258 246.695 367.153V416.949C246.695 420.843 249.739 424 253.495 424H303.216" stroke="url(#paint0_linear_471_11363)" stroke-opacity="0.2" stroke-width="0.431035"/>
<defs>
<linearGradient id="paint0_linear_471_11363" x1="0.215515" y1="-18" x2="309.522" y2="351.102" gradientUnits="userSpaceOnUse">
<stop offset="0.0819437" stop-color="#F7F7F7"/>
<stop offset="0.208333" stop-color="#390D8E"/>
<stop offset="0.526042" stop-color="#5F16EC"/>
<stop offset="0.9375" stop-color="#FDC700"/>
</linearGradient>
</defs>
</svg>
