<svg width="305" height="342" viewBox="0 0 305 342" fill="none" xmlns="http://www.w3.org/2000/svg">
<path d="M156.194 341.117C143.512 341.148 130.956 338.608 119.284 333.65C107.612 328.691 97.067 321.418 88.2852 312.269L-6.60568 212.263C-16.0215 202.341 -23.1286 190.462 -27.4187 177.474C-31.7087 164.486 -33.0758 150.711 -31.422 137.133C-29.7682 123.555 -25.1344 110.511 -17.8521 98.9326C-10.5698 87.3543 -0.81892 77.5282 10.7032 70.1572C67.5289 34.1064 131.354 10.5155 197.966 0.941133C213.717 -1.31797 229.784 0.506211 244.628 6.23887C259.472 11.9715 272.595 21.4205 282.739 33.6803C292.883 45.9401 299.708 60.5997 302.561 76.2544C305.414 91.909 304.198 108.034 299.03 123.084L245.776 278.248C239.967 294.99 229.506 309.73 215.618 320.739C201.731 331.747 184.993 338.57 167.367 340.406L166.483 340.502C163.067 340.898 159.632 341.104 156.194 341.117ZM121.576 280.594C126.634 285.898 132.859 289.95 139.755 292.43C146.652 294.91 154.032 295.75 161.309 294.884L162.559 294.749C171.468 293.814 179.927 290.363 186.946 284.798C193.965 279.233 199.255 271.785 202.197 263.324L255.489 108.102C258.177 100.537 258.836 92.4005 257.402 84.5015C255.968 76.6026 252.49 69.217 247.315 63.0798C242.195 56.8395 235.548 52.0298 228.019 49.1182C220.491 46.2065 212.337 45.292 204.351 46.4634C144.226 55.0501 86.6081 76.2948 35.3009 108.794C29.5316 112.48 24.6496 117.397 21.0053 123.193C17.3609 128.989 15.0447 135.519 14.2226 142.316C13.3618 149.201 14.0401 156.192 16.2085 162.784C18.3769 169.376 21.9814 175.404 26.7619 180.434L121.576 280.594Z" fill="#390D8E" fill-opacity="0.05"/>
</svg>
