<svg width="404" height="356" viewBox="0 0 404 356" fill="none" xmlns="http://www.w3.org/2000/svg">
<path d="M297.574 355.644C284.139 355.626 270.827 353.08 258.334 348.139C162.41 310.429 79.4931 245.687 19.6464 161.771C9.58398 147.642 3.14499 131.259 0.895002 114.059C-1.35498 96.86 0.652884 79.3713 6.74224 63.1294C12.8316 46.8875 22.8161 32.3894 35.8188 20.9086C48.8214 9.42771 64.4444 1.31539 81.3153 -2.7158L153.584 -20.0753C170.307 -24.0744 187.751 -23.9465 204.413 -19.7026C221.075 -15.4588 236.454 -7.22629 249.226 4.28506C263.364 16.9922 279.489 27.2971 296.959 34.7903C310.539 40.5469 322.775 49.0614 332.892 59.7941C343.009 70.5268 350.786 83.2439 355.731 97.1396L397.078 214.223C402.69 230.18 404.408 247.248 402.089 264.004C399.77 280.759 393.482 296.719 383.747 310.552C374.012 324.386 361.113 335.694 346.124 343.533C331.134 351.373 314.489 355.518 297.574 355.622V355.644ZM178.23 29.5232C174.039 29.5233 169.862 30.0168 165.786 30.9936L93.5394 48.2873C85.0101 50.3089 77.1085 54.3959 70.5298 60.1886C63.9511 65.9814 58.8971 73.3024 55.8124 81.5073C52.7277 89.7121 51.7069 98.5494 52.8399 107.241C53.973 115.934 57.225 124.214 62.3099 131.354C116.263 207.022 191.023 265.399 277.515 299.396C287.064 303.159 297.495 304.096 307.562 302.097C317.63 300.098 326.91 295.246 334.298 288.12C341.685 280.994 346.868 271.894 349.228 261.905C351.589 251.916 351.027 241.459 347.611 231.78L306.286 114.719C303.782 107.667 299.84 101.212 294.709 95.7645C289.579 90.3167 283.372 85.9945 276.483 83.0721C253.666 73.3149 232.603 59.8811 214.134 43.3055C204.277 34.4384 191.489 29.5295 178.23 29.5232Z" fill="#390D8E" fill-opacity="0.4"/>
</svg>
