<svg width="429" height="429" viewBox="0 0 429 429" fill="none" xmlns="http://www.w3.org/2000/svg">
<path d="M113.206 428.144C96.0973 428.139 79.3224 423.409 64.7304 414.478C50.1383 405.546 38.2957 392.759 30.5082 377.525C26.3323 369.303 21.6232 361.362 16.4111 353.754C8.2125 341.861 2.9006 328.22 0.897468 313.914C-1.10566 299.608 0.25519 285.033 4.87188 271.345L76.4535 62.7544C80.885 49.8151 88.1209 38.0148 97.6437 28.1974C107.166 18.3801 118.741 10.7882 131.539 5.9647C144.338 1.1412 158.044 -0.794739 171.677 0.295318C185.311 1.38538 198.535 5.4745 210.405 12.2703C313.474 71.1159 390.169 167.115 424.803 280.634C428.733 293.578 429.785 307.224 427.886 320.616C425.987 334.009 421.183 346.825 413.81 358.166C406.438 369.507 396.675 379.099 385.206 386.27C373.736 393.441 360.838 398.018 347.414 399.68L124.668 427.432C120.866 427.908 117.038 428.146 113.206 428.144ZM164.325 45.9456C154.541 45.9479 145.003 49.0078 137.045 54.6975C129.086 60.3872 123.105 68.4221 119.937 77.6784L48.3747 286.25C46.0646 293.137 45.3937 300.467 46.4154 307.659C47.437 314.851 50.1231 321.705 54.2597 327.676C60.6285 336.968 66.3785 346.669 71.4724 356.716C75.8558 365.27 82.7662 372.268 91.2649 376.758C99.7637 381.249 109.439 383.014 118.976 381.814L341.721 354.12C348.546 353.273 355.102 350.94 360.927 347.285C366.752 343.63 371.704 338.742 375.435 332.965C379.136 327.277 381.545 320.848 382.492 314.129C383.439 307.41 382.901 300.566 380.916 294.077C349.648 191.736 280.467 105.205 187.519 52.1768C180.467 48.1039 172.468 45.9551 164.325 45.9456Z" fill="#390D8E" fill-opacity="0.05"/>
</svg>
