<svg width="467" height="409" viewBox="0 0 467 409" fill="none" xmlns="http://www.w3.org/2000/svg">
<path d="M143.21 408.196C123.982 408.18 105.227 402.229 89.5065 391.156C73.7864 380.083 61.8675 364.427 55.3775 346.327L5.37416 204.606C-1.11304 186.41 -1.74343 166.64 3.57137 148.067C8.88616 129.495 19.8797 113.051 35.0107 101.041C46.7661 91.7828 57.1292 80.8821 65.782 68.6739C73.1922 58.0478 82.744 49.0899 93.8232 42.3761C104.902 35.6623 117.264 31.3412 130.113 29.6906L362.456 0.727128C378.297 -1.26773 394.385 0.858713 409.165 6.90083C423.944 12.9429 436.914 22.6963 446.821 35.2178C456.728 47.7392 463.236 62.6051 465.717 78.3779C468.198 94.1507 466.566 110.297 460.981 125.255C436.695 190.17 398.203 248.835 348.324 296.957C298.444 345.08 238.437 381.444 172.693 403.388C163.192 406.584 153.234 408.208 143.21 408.196ZM135.517 75.2897C129.039 76.1442 122.81 78.3446 117.233 81.7494C111.655 85.1543 106.852 89.6883 103.131 95.0602C91.9729 110.939 78.5546 125.103 63.3011 137.102C55.6997 143.176 50.1888 151.477 47.5402 160.84C44.8916 170.203 45.238 180.16 48.5309 189.316L98.5342 331.037C102.7 342.64 111.239 352.152 122.325 357.543C133.412 362.933 146.167 363.774 157.865 359.885C217.134 340.086 271.228 307.287 316.19 263.89C361.151 220.492 395.844 167.593 417.728 109.061C420.57 101.572 421.413 93.472 420.176 85.5579C418.938 77.6439 415.662 70.1881 410.67 63.9236C405.682 57.5308 399.114 52.5478 391.614 49.4654C384.114 46.3831 375.94 45.3078 367.898 46.3455L135.517 75.2897Z" fill="#390D8E" fill-opacity="0.05"/>
</svg>
