<svg width="711" height="905" viewBox="0 0 711 905" fill="none" xmlns="http://www.w3.org/2000/svg">
<path d="M-106.182 538.912C-118.606 538.885 -130.9 536.364 -142.332 531.498C-153.765 526.633 -164.104 519.521 -172.738 510.586C-181.372 501.651 -188.124 491.074 -192.595 479.481C-197.066 467.888 -199.164 455.516 -198.765 443.098C-197.053 394.448 -187.922 346.346 -171.686 300.454C-166.385 285.458 -157.32 272.075 -145.362 261.588C-133.403 251.101 -118.951 243.862 -103.391 240.565C-87.8315 237.268 -71.6855 238.023 -56.5013 242.758C-41.317 247.492 -27.6036 256.048 -16.6757 267.605L35.02 322.147C47.5629 335.316 55.947 351.889 59.1246 369.795C62.3023 387.701 60.1326 406.147 52.8866 422.827C48.8917 432.033 45.8437 441.621 43.7899 451.444C40.1136 468.579 31.6596 484.322 19.4067 496.85C7.1537 509.379 -8.39713 518.181 -25.4455 522.237L-84.334 536.354C-91.4926 538.051 -98.8245 538.909 -106.182 538.912ZM-83.9686 284.529C-87.3034 284.534 -90.6288 284.882 -93.8923 285.568C-101.735 287.201 -109.023 290.832 -115.051 296.108C-121.079 301.384 -125.642 308.128 -128.298 315.685C-142.967 357.174 -151.217 400.658 -152.762 444.636C-153.037 451.79 -151.638 458.909 -148.676 465.426C-145.714 471.943 -141.272 477.679 -135.703 482.177C-130.107 486.815 -123.505 490.083 -116.423 491.719C-109.341 493.355 -101.975 493.314 -94.9116 491.601L-36.0423 477.504C-27.4751 475.481 -19.6548 471.076 -13.4849 464.797C-7.31503 458.518 -3.04729 450.622 -1.17467 442.021C1.52104 429.128 5.52271 416.543 10.7684 404.46C14.4061 396.047 15.4851 386.749 13.8708 377.726C12.2564 368.704 8.02017 360.356 1.69092 353.726L-50.0433 299.184C-54.3985 294.555 -59.6552 290.867 -65.4897 288.347C-71.3242 285.827 -77.613 284.527 -83.9686 284.529Z" fill="#390D8E" fill-opacity="0.05"/>
<path d="M131.489 898.798C119.716 898.781 108.051 896.55 97.1022 892.22C13.0417 859.174 -59.6202 802.439 -112.065 728.902C-120.883 716.52 -126.526 702.163 -128.498 687.091C-130.469 672.018 -128.71 656.693 -123.374 642.459C-118.037 628.226 -109.288 615.521 -97.8931 605.46C-86.4986 595.399 -72.8078 588.29 -58.0233 584.758L5.30775 569.545C19.9619 566.041 35.2486 566.153 49.8498 569.872C64.4511 573.591 77.9288 580.805 89.121 590.893C101.511 602.028 115.641 611.059 130.951 617.625C142.851 622.67 153.573 630.131 162.439 639.537C171.305 648.942 178.121 660.086 182.454 672.263L218.687 774.866C223.605 788.85 225.111 803.807 223.079 818.49C221.047 833.174 215.536 847.16 207.005 859.282C198.474 871.405 187.17 881.314 174.035 888.184C160.899 895.054 146.312 898.686 131.489 898.778V898.798ZM26.9053 613.01C23.2325 613.01 19.5724 613.442 16.0008 614.298L-47.3111 629.453C-54.7855 631.224 -61.7099 634.806 -67.475 639.882C-73.24 644.959 -77.669 651.374 -80.3722 658.564C-83.0754 665.755 -83.9699 673.499 -82.977 681.116C-81.9841 688.733 -79.1343 695.989 -74.6783 702.246C-27.3982 768.556 38.1165 819.713 113.911 849.506C122.28 852.803 131.42 853.625 140.242 851.872C149.065 850.12 157.198 845.869 163.671 839.624C170.145 833.379 174.687 825.405 176.755 816.651C178.824 807.898 178.332 798.734 175.338 790.252L139.124 687.668C136.93 681.489 133.475 675.832 128.979 671.058C124.483 666.284 119.044 662.497 113.007 659.936C93.0114 651.385 74.5536 639.613 58.3689 625.087C49.7307 617.317 38.5242 613.015 26.9053 613.01Z" fill="#390D8E" fill-opacity="0.05"/>
<path d="M156.194 341.117C143.512 341.148 130.956 338.608 119.284 333.65C107.612 328.691 97.067 321.418 88.2852 312.269L-6.60568 212.263C-16.0215 202.341 -23.1286 190.462 -27.4187 177.474C-31.7087 164.486 -33.0758 150.711 -31.422 137.133C-29.7682 123.555 -25.1344 110.511 -17.8521 98.9326C-10.5698 87.3543 -0.81892 77.5282 10.7032 70.1572C67.5289 34.1064 131.354 10.5155 197.966 0.941133C213.717 -1.31797 229.784 0.506211 244.628 6.23887C259.472 11.9715 272.595 21.4205 282.739 33.6803C292.883 45.9401 299.708 60.5997 302.561 76.2544C305.414 91.909 304.198 108.034 299.03 123.084L245.776 278.248C239.967 294.99 229.506 309.73 215.618 320.739C201.731 331.747 184.993 338.57 167.367 340.406L166.483 340.502C163.067 340.898 159.632 341.104 156.194 341.117ZM121.576 280.594C126.634 285.898 132.859 289.95 139.755 292.43C146.652 294.91 154.032 295.75 161.309 294.884L162.559 294.749C171.468 293.814 179.927 290.363 186.946 284.798C193.965 279.233 199.255 271.785 202.197 263.324L255.489 108.102C258.177 100.537 258.836 92.4005 257.402 84.5015C255.968 76.6026 252.49 69.217 247.315 63.0798C242.195 56.8395 235.548 52.0298 228.019 49.1182C220.491 46.2065 212.337 45.292 204.351 46.4634C144.226 55.0501 86.6081 76.2948 35.3009 108.794C29.5316 112.48 24.6496 117.397 21.0053 123.193C17.3609 128.989 15.0447 135.519 14.2226 142.316C13.3618 149.201 14.0401 156.192 16.2085 162.784C18.3769 169.376 21.9814 175.404 26.7619 180.434L121.576 280.594Z" fill="#390D8E" fill-opacity="0.05"/>
<path d="M387.179 905C367.95 904.984 349.195 899.033 333.475 887.96C317.755 876.887 305.836 861.231 299.346 843.131L249.343 701.41C242.856 683.214 242.225 663.443 247.54 644.871C252.855 626.299 263.848 609.855 278.979 597.845C290.735 588.587 301.098 577.686 309.751 565.478C317.161 554.852 326.713 545.894 337.792 539.18C348.871 532.466 361.233 528.145 374.082 526.494L606.424 497.531C622.266 495.536 638.354 497.662 653.133 503.705C667.913 509.747 680.883 519.5 690.79 532.021C700.697 544.543 707.205 559.409 709.686 575.182C712.166 590.954 710.535 607.1 704.95 622.058C680.663 686.973 642.172 745.638 592.292 793.761C542.412 841.884 482.406 878.248 416.662 900.192C407.161 903.388 397.203 905.012 387.179 905ZM379.486 572.093C373.008 572.948 366.779 575.148 361.202 578.553C355.624 581.958 350.82 586.492 347.099 591.864C335.942 607.743 322.523 621.906 307.27 633.905C299.668 639.98 294.158 648.28 291.509 657.643C288.86 667.007 289.207 676.964 292.5 686.12L342.503 827.841C346.669 839.443 355.207 848.956 366.294 854.347C377.381 859.737 390.136 860.578 401.834 856.689C461.103 836.889 515.197 804.091 560.159 760.693C605.12 717.296 639.812 664.397 661.697 605.865C664.538 598.376 665.382 590.276 664.144 582.362C662.907 574.448 659.631 566.992 654.639 560.727C649.651 554.335 643.083 549.351 635.583 546.269C628.083 543.187 619.909 542.112 611.867 543.149L379.486 572.093Z" fill="#390D8E" fill-opacity="0.05"/>
<path d="M392.08 466.574C374.971 466.568 358.196 461.839 343.604 452.907C329.012 443.976 317.17 431.188 309.382 415.955C305.206 407.732 300.497 399.792 295.285 392.184C287.087 380.291 281.775 366.649 279.771 352.344C277.768 338.038 279.129 323.462 283.746 309.775L355.328 101.184C359.759 88.2448 366.995 76.4445 376.518 66.6271C386.041 56.8098 397.615 49.2179 410.413 44.3944C423.212 39.5709 436.918 37.6349 450.551 38.725C464.185 39.8151 477.409 43.9042 489.279 50.7C592.348 109.546 669.043 205.545 703.677 319.064C707.607 332.007 708.659 345.653 706.76 359.046C704.861 372.439 700.057 385.254 692.684 396.595C685.312 407.936 675.549 417.528 664.08 424.7C652.61 431.871 639.712 436.448 626.288 438.11L403.542 465.862C399.74 466.338 395.912 466.576 392.08 466.574ZM443.199 84.3753C433.415 84.3775 423.877 87.4375 415.919 93.1272C407.96 98.8169 401.979 106.852 398.811 116.108L327.249 324.68C324.939 331.566 324.268 338.897 325.289 346.089C326.311 353.281 328.997 360.134 333.134 366.105C339.503 375.397 345.253 385.098 350.346 395.146C354.73 403.7 361.64 410.698 370.139 415.188C378.638 419.678 388.313 421.443 397.85 420.244L620.595 392.549C627.42 391.703 633.976 389.37 639.801 385.715C645.626 382.06 650.578 377.171 654.309 371.394C658.01 365.707 660.419 359.278 661.366 352.559C662.313 345.84 661.775 338.995 659.79 332.507C628.522 230.166 559.341 143.635 466.393 90.6064C459.341 86.5335 451.342 84.3848 443.199 84.3753Z" fill="#390D8E" fill-opacity="0.05"/>
<path d="M271.224 483.339C269.13 606.044 86.615 606.025 84.5403 483.339C86.6336 360.652 269.149 360.671 271.224 483.339Z" fill="#390D8E" fill-opacity="0.05"/>
</svg>
