<svg width="18" height="18" viewBox="0 0 18 18" fill="none" xmlns="http://www.w3.org/2000/svg">
<path d="M11.8906 5.37598V5.37695C12.7517 5.44539 13.4064 5.72692 13.8867 6.20312C11.7411 7.91346 12.2787 10.9945 14.3643 12.1895C13.9499 13.1914 13.4316 14.114 12.6572 14.8066L12.7803 14.9443L12.6504 14.8125C12.3461 15.1075 12.0541 15.2129 11.7705 15.2266C11.4695 15.241 11.136 15.1538 10.7617 14.9902L10.7559 14.9883L10.5723 14.915C9.65516 14.5723 8.77658 14.5821 7.80566 14.9873L7.7998 14.9893C7.26858 15.2179 6.93258 15.2677 6.68457 15.2334C6.44938 15.2008 6.22187 15.0824 5.92578 14.8125C4.09428 12.9187 3.33771 10.5568 3.52832 8.68262C3.62362 7.7464 3.95203 6.95189 4.47363 6.38574C4.98408 5.83174 5.7069 5.46492 6.66602 5.41016C7.11379 5.43682 7.50315 5.56074 7.88184 5.69922C8.23192 5.82724 8.66586 6.0114 9.06738 6.04199L9.13672 6.04688L9.20508 6.0332C9.70893 5.93072 10.2293 5.72464 10.6494 5.58789C11.0969 5.44226 11.493 5.34838 11.8906 5.37598ZM11.4814 2.10547C11.4015 2.71137 11.084 3.25058 10.6592 3.66211C10.3858 3.92685 10.0804 4.12625 9.79395 4.24707C9.705 4.28458 9.62055 4.31022 9.54297 4.33105C9.68343 3.27835 10.4832 2.4095 11.4814 2.10547Z" fill="#181D27" stroke="#181D27"/>
</svg>
