<svg width="32" height="32" viewBox="0 0 32 32" fill="none" xmlns="http://www.w3.org/2000/svg">
<path d="M15.9997 28.6666C21.9707 28.6666 24.9563 28.6666 26.8114 26.8117C28.6663 24.9566 28.6663 21.971 28.6663 15.9999C28.6663 10.0288 28.6663 7.04323 26.8114 5.18824C24.9563 3.33325 21.9707 3.33325 15.9997 3.33325C10.0286 3.33325 7.04299 3.33325 5.18799 5.18824C3.33301 7.04324 3.33301 10.0288 3.33301 15.9999C3.33301 21.971 3.33301 24.9566 5.18799 26.8117C7.04298 28.6666 10.0285 28.6666 15.9997 28.6666Z" stroke="#390D8E" stroke-width="2" stroke-linecap="round" stroke-linejoin="round"/>
<path d="M20 12L12 19.9995M20 20L12 12.0005" stroke="#390D8E" stroke-width="2" stroke-linecap="round" stroke-linejoin="round"/>
</svg>
