<svg width="32" height="32" viewBox="0 0 32 32" fill="none" xmlns="http://www.w3.org/2000/svg">
<path d="M20.6667 17.3333C25.4531 17.3333 29.3333 16.1394 29.3333 14.6667C29.3333 13.1939 25.4531 12 20.6667 12C15.8802 12 12 13.1939 12 14.6667C12 16.1394 15.8802 17.3333 20.6667 17.3333Z" stroke="#4C12BD" stroke-width="2"/>
<path d="M29.3333 20.6666C29.3333 22.1394 25.4532 23.3333 20.6667 23.3333C15.8801 23.3333 12 22.1394 12 20.6666" stroke="#4C12BD" stroke-width="2"/>
<path d="M29.3333 14.6666V26.4C29.3333 28.02 25.4532 29.3333 20.6667 29.3333C15.8801 29.3333 12 28.02 12 26.4V14.6666" stroke="#4C12BD" stroke-width="2"/>
<path d="M11.3334 7.99996C16.1199 7.99996 20.0001 6.80605 20.0001 5.33329C20.0001 3.86053 16.1199 2.66663 11.3334 2.66663C6.54695 2.66663 2.66675 3.86053 2.66675 5.33329C2.66675 6.80605 6.54695 7.99996 11.3334 7.99996Z" stroke="#4C12BD" stroke-width="2"/>
<path d="M8.00008 14.6667C5.47767 14.3597 3.15996 13.566 2.66675 12M8.00008 21.3333C5.47767 21.0264 3.15996 20.2327 2.66675 18.6667" stroke="#4C12BD" stroke-width="2" stroke-linecap="round"/>
<path d="M8.00008 28C5.47767 27.6931 3.15996 26.8994 2.66675 25.3334V5.33337" stroke="#4C12BD" stroke-width="2" stroke-linecap="round"/>
<path d="M20 8.00004V5.33337" stroke="#4C12BD" stroke-width="2" stroke-linecap="round"/>
</svg>
