<svg width="32" height="32" viewBox="0 0 32 32" fill="none" xmlns="http://www.w3.org/2000/svg">
<path d="M20.3333 18.6666C20.3333 18.1143 20.781 17.6666 21.3333 17.6666C21.8855 17.6666 22.3333 18.1143 22.3333 18.6666V21.0455L23.996 22.0859C24.4643 22.3786 24.6077 22.9952 24.315 23.4635C24.0223 23.9318 23.4045 24.0739 22.9361 23.7812L20.8033 22.4479C20.511 22.2652 20.3333 21.9449 20.3333 21.6002V18.6666Z" fill="#4C12BD"/>
<path d="M20.3333 7.99996V2.66663C20.3333 2.11434 20.781 1.66663 21.3333 1.66663C21.8855 1.66663 22.3333 2.11434 22.3333 2.66663V7.99996C22.3333 8.55224 21.8855 8.99996 21.3333 8.99996C20.781 8.99996 20.3333 8.55224 20.3333 7.99996Z" fill="#4C12BD"/>
<path d="M27 9.99992V7.99992C27 7.08043 26.2528 6.33325 25.3333 6.33325H6.66667C5.74718 6.33325 5 7.08043 5 7.99992V26.6666C5 27.5861 5.74718 28.3333 6.66667 28.3333H11.3333C11.8856 28.3333 12.3333 28.781 12.3333 29.3333C12.3333 29.8855 11.8856 30.3333 11.3333 30.3333H6.66667C4.64261 30.3333 3 28.6906 3 26.6666V7.99992C3 5.97586 4.64261 4.33325 6.66667 4.33325H25.3333C27.3574 4.33325 29 5.97586 29 7.99992V9.99992C29 10.5522 28.5523 10.9999 28 10.9999C27.4477 10.9999 27 10.5522 27 9.99992Z" fill="#4C12BD"/>
<path d="M10.6667 12.3333C11.219 12.3333 11.6667 12.781 11.6667 13.3333C11.6667 13.8855 11.219 14.3333 10.6667 14.3333H4C3.44772 14.3333 3 13.8855 3 13.3333C3 12.781 3.44772 12.3333 4 12.3333H10.6667Z" fill="#4C12BD"/>
<path d="M9.66675 7.99996V2.66663C9.66675 2.11434 10.1145 1.66663 10.6667 1.66663C11.219 1.66663 11.6667 2.11434 11.6667 2.66663V7.99996C11.6667 8.55224 11.219 8.99996 10.6667 8.99996C10.1145 8.99996 9.66675 8.55224 9.66675 7.99996Z" fill="#4C12BD"/>
<path d="M28.3333 21.3333C28.3333 17.4702 25.1963 14.3333 21.3333 14.3333C17.4702 14.3333 14.3333 17.4702 14.3333 21.3333C14.3333 25.1963 17.4702 28.3333 21.3333 28.3333C25.1963 28.3333 28.3333 25.1963 28.3333 21.3333ZM30.3333 21.3333C30.3333 26.3009 26.3009 30.3333 21.3333 30.3333C16.3656 30.3333 12.3333 26.3009 12.3333 21.3333C12.3333 16.3656 16.3656 12.3333 21.3333 12.3333C26.3009 12.3333 30.3333 16.3656 30.3333 21.3333Z" fill="#4C12BD"/>
</svg>
