<svg width="32" height="32" viewBox="0 0 32 32" fill="none" xmlns="http://www.w3.org/2000/svg">
<path d="M24 24H8.00004C6.52728 24 5.33337 25.1939 5.33337 26.6667C5.33337 28.1395 6.52728 29.3333 8.00004 29.3333H24C25.4728 29.3333 26.6667 28.1395 26.6667 26.6667C26.6667 25.1939 25.4728 24 24 24Z" stroke="#4C12BD" stroke-width="2" stroke-linecap="round" stroke-linejoin="round"/>
<path d="M16 11.3333C16.7364 11.3333 17.3333 10.7363 17.3333 9.99996C17.3333 9.26359 16.7364 8.66663 16 8.66663M16 11.3333C15.2636 11.3333 14.6667 10.7363 14.6667 9.99996C14.6667 9.26359 15.2636 8.66663 16 8.66663M16 11.3333V8.66663M13.3333 16.6666H18.6667M12 18V17.3333C12 15.8605 13.1939 14.6666 14.6667 14.6666H17.3333C18.8061 14.6666 20 15.8605 20 17.3333V18H12Z" stroke="#4C12BD" stroke-width="2" stroke-linecap="round" stroke-linejoin="round"/>
<path d="M22 26.6666V26.68" stroke="#4C12BD" stroke-width="2" stroke-linecap="round" stroke-linejoin="round"/>
<path d="M18 26.6666V26.68" stroke="#4C12BD" stroke-width="2" stroke-linecap="round" stroke-linejoin="round"/>
<path d="M26.6667 26.6666V10.6666C26.6667 6.89539 26.6667 5.00977 25.4951 3.8382C24.3235 2.66663 22.4379 2.66663 18.6667 2.66663H13.3334C9.56213 2.66663 7.67652 2.66663 6.50495 3.8382C5.33337 5.00977 5.33337 6.89539 5.33337 10.6666V26.6666" stroke="#4C12BD" stroke-width="2" stroke-linecap="round" stroke-linejoin="round"/>
</svg>
