<svg width="32" height="32" viewBox="0 0 32 32" fill="none" xmlns="http://www.w3.org/2000/svg">
<path d="M29.3333 13.3334V12.2901C29.3333 9.70391 29.3333 8.41084 28.5522 7.60742C27.7712 6.804 26.5141 6.804 24 6.804H21.2285C20.0053 6.804 19.9952 6.80163 18.8953 6.2512L14.4532 4.02827C12.5984 3.10013 11.6711 2.63607 10.6831 2.66832C9.6952 2.70057 8.79832 3.22419 7.00456 4.27143L5.3674 5.22724C4.04981 5.99647 3.39101 6.38109 3.02881 7.02093C2.66663 7.66079 2.66663 8.43999 2.66663 9.99839V20.9543C2.66663 23.0019 2.66663 24.0258 3.12297 24.5957C3.42664 24.9747 3.85217 25.2297 4.32263 25.3142C5.02964 25.4411 5.89527 24.9358 7.62645 23.925C8.80204 23.2387 9.93344 22.5259 11.3398 22.7193C12.5182 22.8811 13.6133 23.6247 14.6666 24.1518" stroke="#390D8E" stroke-width="1.5" stroke-linecap="round" stroke-linejoin="round"/>
<path d="M10.6666 2.66675V22.6667" stroke="#390D8E" stroke-width="1.5" stroke-linejoin="round"/>
<path d="M20 6.66675V12.6667" stroke="#390D8E" stroke-width="1.5" stroke-linecap="round" stroke-linejoin="round"/>
<path d="M24.4111 28.9113C24.122 29.182 23.7356 29.3333 23.3335 29.3333C22.9314 29.3333 22.545 29.182 22.2559 28.9113C19.6084 26.4173 16.0607 23.6313 17.7908 19.5864C18.7263 17.3995 20.9719 16 23.3335 16C25.6951 16 27.9407 17.3995 28.8762 19.5864C30.6042 23.6261 27.0651 26.4259 24.4111 28.9113Z" stroke="#390D8E" stroke-width="1.5"/>
<path d="M23.3334 22H23.3454" stroke="#181D27" stroke-width="1.5" stroke-linecap="round" stroke-linejoin="round"/>
</svg>
