<svg width="32" height="32" viewBox="0 0 32 32" fill="none" xmlns="http://www.w3.org/2000/svg">
<path d="M5.3335 14.6667V20.0001C5.3335 24.3998 5.3335 26.5997 6.70034 27.9666C8.06716 29.3334 10.2671 29.3334 14.6668 29.3334H17.3335C21.7332 29.3334 23.9331 29.3334 25.3 27.9666C26.6668 26.5997 26.6668 24.3998 26.6668 20.0001V14.6667" stroke="#390D8E" stroke-width="2" stroke-linecap="round" stroke-linejoin="round"/>
<path d="M4 11.9999C4 11.003 4 10.5045 4.26795 10.1333C4.44348 9.89003 4.69596 9.68804 5 9.54761C5.46411 9.33325 6.08717 9.33325 7.33333 9.33325H24.6667C25.9128 9.33325 26.5359 9.33325 27 9.54761C27.304 9.68804 27.5565 9.89003 27.732 10.1333C28 10.5045 28 11.003 28 11.9999C28 12.9968 28 13.4953 27.732 13.8666C27.5565 14.1098 27.304 14.3118 27 14.4522C26.5359 14.6666 25.9128 14.6666 24.6667 14.6666H7.33333C6.08717 14.6666 5.46411 14.6666 5 14.4522C4.69596 14.3118 4.44348 14.1098 4.26795 13.8666C4 13.4953 4 12.9968 4 11.9999Z" stroke="#390D8E" stroke-width="2" stroke-linejoin="round"/>
<path d="M8 5.04769C8 3.73273 9.06599 2.66675 10.3809 2.66675H10.8571C13.6975 2.66675 16 4.96928 16 7.8096V9.33341H12.2857C9.91877 9.33341 8 7.41463 8 5.04769Z" stroke="#390D8E" stroke-width="2" stroke-linejoin="round"/>
<path d="M24 5.04769C24 3.73273 22.934 2.66675 21.6191 2.66675H21.1428C18.3025 2.66675 16 4.96928 16 7.8096V9.33341H19.7143C22.0812 9.33341 24 7.41463 24 5.04769Z" stroke="#390D8E" stroke-width="2" stroke-linejoin="round"/>
<path d="M16 14.6667V29.3334" stroke="#390D8E" stroke-width="2" stroke-linecap="round" stroke-linejoin="round"/>
</svg>
