<svg width="18" height="18" viewBox="0 0 18 18" fill="none" xmlns="http://www.w3.org/2000/svg">
<path d="M9.12305 3.5C10.4453 3.50004 11.5708 3.9206 12.4805 4.625L11.4629 5.64258C10.7901 5.14493 9.98905 4.89164 9.12305 4.8916C6.81535 4.8916 4.96094 6.83364 4.96094 9.11914C4.96095 11.4034 6.81477 13.3496 9.12305 13.3496C11.1623 13.3495 12.6474 12.1617 12.9521 10.4502L13.0566 9.8623H9.62305V8.47461H14.4512C14.4819 8.72904 14.5 8.9912 14.5 9.26074C14.4999 10.8965 13.9539 12.2626 13.0283 13.2168C12.1043 14.1693 10.7692 14.746 9.12305 14.7461C8.38463 14.7463 7.65296 14.6008 6.9707 14.3184C6.28852 14.0359 5.6686 13.6217 5.14648 13.0996C4.62443 12.5776 4.21022 11.9575 3.92773 11.2754C3.64525 10.5931 3.49978 9.86147 3.5 9.12305C3.49977 8.3846 3.64525 7.65298 3.92773 6.9707C4.21022 6.28846 4.62434 5.66862 5.14648 5.14648C5.66862 4.62434 6.28846 4.21022 6.9707 3.92773C7.65298 3.64525 8.3846 3.49977 9.12305 3.5Z" fill="#181D27" stroke="#181D27"/>
</svg>
