<svg width="32" height="32" viewBox="0 0 32 32" fill="none" xmlns="http://www.w3.org/2000/svg">
<path d="M5.33338 18.6666C4.81838 18.6683 4.34841 18.3734 4.12611 17.9088C3.90381 17.4442 3.96892 16.8932 4.29338 16.4933L17.4934 2.89326C17.6973 2.65786 18.0371 2.59503 18.3117 2.74193C18.5863 2.88882 18.7226 3.20629 18.64 3.50659L16.08 11.5333C15.9268 11.9434 15.9847 12.4025 16.2348 12.7618C16.485 13.1211 16.8956 13.3347 17.3334 13.3333H26.6667C27.1817 13.3315 27.6517 13.6265 27.874 14.091C28.0963 14.5556 28.0312 15.1066 27.7067 15.5066L14.5067 29.1066C14.3028 29.342 13.963 29.4048 13.6884 29.2579C13.4138 29.111 13.2774 28.7936 13.36 28.4933L15.92 20.4666C16.0733 20.0565 16.0154 19.5973 15.7653 19.238C15.5151 18.8787 15.1045 18.6652 14.6667 18.6666H5.33338Z" stroke="#390D8E" stroke-width="1.5" stroke-linecap="round" stroke-linejoin="round"/>
</svg>
