<svg width="24" height="24" viewBox="0 0 24 24" fill="none" xmlns="http://www.w3.org/2000/svg">
<path d="M15 5.88L14 10H19.83C20.4595 10 21.0523 10.2964 21.43 10.8C21.8077 11.3036 21.9263 11.9557 21.75 12.56L19.42 20.56C19.1711 21.4133 18.3889 22 17.5 22H4C2.89617 22 2 21.1038 2 20V12C2 10.8962 2.89617 10 4 10H6.76C7.51894 9.9996 8.21227 9.56966 8.55 8.89L12 2C12.9554 2.01183 13.853 2.45936 14.4374 3.2152C15.0218 3.97105 15.229 4.95242 15 5.88V5.88" stroke="#390D8E" stroke-width="1.5" stroke-linecap="round" stroke-linejoin="round"/>
<path d="M7 10V22" stroke="#390D8E" stroke-width="1.5" stroke-linecap="round" stroke-linejoin="round"/>
</svg>
