<svg width="227" height="11" viewBox="0 0 227 11" fill="none" xmlns="http://www.w3.org/2000/svg">
<path d="M4.05312e-05 5.33325C4.07887e-05 8.27877 2.38786 10.6666 5.33337 10.6666C8.27889 10.6666 10.6667 8.27877 10.6667 5.33325C10.6667 2.38773 8.27889 -8.17967e-05 5.33337 -8.15392e-05C2.38785 -8.12816e-05 4.02737e-05 2.38773 4.05312e-05 5.33325ZM216 5.33323C216 8.27875 218.388 10.6666 221.333 10.6666C224.279 10.6666 226.667 8.27875 226.667 5.33323C226.667 2.38771 224.279 -0.00010068 221.333 -0.000100422C218.388 -0.000100165 216 2.38771 216 5.33323ZM5.33337 5.33325L5.33337 6.33325L6.83337 6.33325L6.83337 5.33325L6.83337 4.33325L5.33337 4.33325L5.33337 5.33325ZM9.83337 5.33325L9.83337 6.33325L12.8334 6.33325L12.8334 5.33325L12.8334 4.33325L9.83337 4.33325L9.83337 5.33325ZM15.8334 5.33325L15.8334 6.33325L18.8334 6.33325L18.8334 5.33325L18.8334 4.33325L15.8334 4.33325L15.8334 5.33325ZM21.8334 5.33325L21.8334 6.33325L24.8334 6.33325L24.8334 5.33325L24.8334 4.33325L21.8334 4.33325L21.8334 5.33325ZM27.8334 5.33325L27.8334 6.33325L30.8334 6.33325L30.8334 5.33325L30.8334 4.33325L27.8334 4.33325L27.8334 5.33325ZM33.8334 5.33325L33.8334 6.33325L36.8334 6.33325L36.8334 5.33325L36.8334 4.33325L33.8334 4.33325L33.8334 5.33325ZM39.8334 5.33325L39.8334 6.33325L42.8334 6.33325L42.8334 5.33325L42.8334 4.33325L39.8334 4.33325L39.8334 5.33325ZM45.8334 5.33325L45.8334 6.33325L48.8334 6.33325L48.8334 5.33325L48.8334 4.33325L45.8334 4.33325L45.8334 5.33325ZM51.8334 5.33325L51.8334 6.33325L54.8334 6.33325L54.8334 5.33325L54.8334 4.33325L51.8334 4.33325L51.8334 5.33325ZM57.8334 5.33325L57.8334 6.33325L60.8334 6.33325L60.8334 5.33325L60.8334 4.33325L57.8334 4.33325L57.8334 5.33325ZM63.8334 5.33325L63.8334 6.33325L66.8334 6.33325L66.8334 5.33325L66.8334 4.33325L63.8334 4.33325L63.8334 5.33325ZM69.8334 5.33325L69.8334 6.33325L72.8334 6.33325L72.8334 5.33325L72.8334 4.33325L69.8334 4.33325L69.8334 5.33325ZM75.8334 5.33325L75.8334 6.33325L78.8334 6.33325L78.8334 5.33325L78.8334 4.33325L75.8334 4.33325L75.8334 5.33325ZM81.8334 5.33325L81.8334 6.33325L84.8334 6.33325L84.8334 5.33325L84.8334 4.33325L81.8334 4.33325L81.8334 5.33325ZM87.8334 5.33324L87.8334 6.33324L90.8334 6.33324L90.8334 5.33324L90.8334 4.33324L87.8334 4.33324L87.8334 5.33324ZM93.8334 5.33324L93.8334 6.33324L96.8334 6.33324L96.8334 5.33324L96.8334 4.33324L93.8334 4.33324L93.8334 5.33324ZM99.8334 5.33324L99.8334 6.33324L102.833 6.33324L102.833 5.33324L102.833 4.33324L99.8334 4.33324L99.8334 5.33324ZM105.833 5.33324L105.833 6.33324L108.833 6.33324L108.833 5.33324L108.833 4.33324L105.833 4.33324L105.833 5.33324ZM111.833 5.33324L111.833 6.33324L114.833 6.33324L114.833 5.33324L114.833 4.33324L111.833 4.33324L111.833 5.33324ZM117.833 5.33324L117.833 6.33324L120.833 6.33324L120.833 5.33324L120.833 4.33324L117.833 4.33324L117.833 5.33324ZM123.833 5.33324L123.833 6.33324L126.833 6.33324L126.833 5.33324L126.833 4.33324L123.833 4.33324L123.833 5.33324ZM129.833 5.33324L129.833 6.33324L132.833 6.33324L132.833 5.33324L132.833 4.33324L129.833 4.33324L129.833 5.33324ZM135.833 5.33324L135.833 6.33324L138.833 6.33324L138.833 5.33324L138.833 4.33324L135.833 4.33324L135.833 5.33324ZM141.833 5.33324L141.833 6.33324L144.833 6.33324L144.833 5.33324L144.833 4.33324L141.833 4.33324L141.833 5.33324ZM147.833 5.33324L147.833 6.33324L150.833 6.33324L150.833 5.33324L150.833 4.33324L147.833 4.33324L147.833 5.33324ZM153.833 5.33324L153.833 6.33324L156.833 6.33324L156.833 5.33324L156.833 4.33324L153.833 4.33324L153.833 5.33324ZM159.833 5.33324L159.833 6.33324L162.833 6.33324L162.833 5.33324L162.833 4.33324L159.833 4.33324L159.833 5.33324ZM165.833 5.33324L165.833 6.33324L168.833 6.33324L168.833 5.33324L168.833 4.33324L165.833 4.33324L165.833 5.33324ZM171.833 5.33324L171.833 6.33324L174.833 6.33324L174.833 5.33324L174.833 4.33324L171.833 4.33324L171.833 5.33324ZM177.833 5.33324L177.833 6.33324L180.833 6.33324L180.833 5.33324L180.833 4.33324L177.833 4.33324L177.833 5.33324ZM183.833 5.33324L183.833 6.33324L186.833 6.33324L186.833 5.33324L186.833 4.33324L183.833 4.33324L183.833 5.33324ZM189.833 5.33324L189.833 6.33324L192.833 6.33324L192.833 5.33324L192.833 4.33324L189.833 4.33324L189.833 5.33324ZM195.833 5.33324L195.833 6.33324L198.833 6.33324L198.833 5.33324L198.833 4.33324L195.833 4.33324L195.833 5.33324ZM201.833 5.33323L201.833 6.33323L204.833 6.33323L204.833 5.33323L204.833 4.33323L201.833 4.33323L201.833 5.33323ZM207.833 5.33323L207.833 6.33323L210.833 6.33323L210.833 5.33323L210.833 4.33323L207.833 4.33323L207.833 5.33323ZM213.833 5.33323L213.833 6.33323L216.833 6.33323L216.833 5.33323L216.833 4.33323L213.833 4.33323L213.833 5.33323ZM219.833 5.33323L219.833 6.33323L221.333 6.33323L221.333 5.33323L221.333 4.33323L219.833 4.33323L219.833 5.33323Z" fill="url(#paint0_linear_390_8894)"/>
<defs>
<linearGradient id="paint0_linear_390_8894" x1="5.33337" y1="5.83325" x2="221.333" y2="5.83323" gradientUnits="userSpaceOnUse">
<stop stop-color="#50457F"/>
<stop offset="1" stop-color="#9F73F4"/>
</linearGradient>
</defs>
</svg>
