<svg width="16" height="16" viewBox="0 0 16 16" fill="none" xmlns="http://www.w3.org/2000/svg">
<path d="M4.6665 5.6665L6.62785 6.8261C7.7713 7.50217 8.22837 7.50217 9.37184 6.8261L11.3332 5.6665" stroke="white" stroke-linecap="round" stroke-linejoin="round"/>
<path d="M1.34401 8.9839C1.38759 11.0276 1.40938 12.0494 2.16347 12.8064C2.91755 13.5634 3.96705 13.5897 6.06605 13.6424C7.3597 13.675 8.64063 13.675 9.9343 13.6424C12.0333 13.5897 13.0828 13.5634 13.8369 12.8064C14.591 12.0494 14.6128 11.0276 14.6563 8.9839C14.6704 8.32676 14.6704 7.67356 14.6563 7.01643C14.6128 4.97274 14.591 3.95089 13.8369 3.19394C13.0828 2.43698 12.0333 2.41062 9.9343 2.35788C8.64063 2.32537 7.3597 2.32537 6.06604 2.35787C3.96705 2.4106 2.91755 2.43697 2.16346 3.19393C1.40938 3.95088 1.38759 4.97273 1.344 7.01643C1.32999 7.67356 1.33 8.32676 1.34401 8.9839Z" stroke="white" stroke-linecap="round" stroke-linejoin="round"/>
</svg>
