<svg width="16" height="16" viewBox="0 0 16 16" fill="none" xmlns="http://www.w3.org/2000/svg">
<path d="M9.66683 6.00016C9.66683 6.92063 8.92063 7.66683 8.00016 7.66683C7.0797 7.66683 6.3335 6.92063 6.3335 6.00016C6.3335 5.07969 7.0797 4.3335 8.00016 4.3335C8.92063 4.3335 9.66683 5.07969 9.66683 6.00016Z" stroke="white"/>
<path d="M8.83843 11.6626C8.61356 11.8791 8.31303 12.0002 8.0003 12.0002C7.6875 12.0002 7.38696 11.8791 7.1621 11.6626C5.10303 9.66736 2.34362 7.4385 3.6893 4.20265C4.4169 2.45304 6.16346 1.3335 8.0003 1.3335C9.8371 1.3335 11.5836 2.45305 12.3112 4.20265C13.6552 7.43443 10.9026 9.67423 8.83843 11.6626Z" stroke="white"/>
<path d="M12 13.3335C12 14.0699 10.2091 14.6668 8 14.6668C5.79086 14.6668 4 14.0699 4 13.3335" stroke="white" stroke-linecap="round"/>
</svg>
