<svg width="32" height="32" viewBox="0 0 32 32" fill="none" xmlns="http://www.w3.org/2000/svg">
<path d="M5.3335 12.0001C5.3335 7.60031 5.3335 5.40041 6.89559 4.03359C8.4577 2.66675 10.9718 2.66675 16.0002 2.66675C21.0284 2.66675 23.5427 2.66675 25.1047 4.03359C26.6668 5.40041 26.6668 7.60031 26.6668 12.0001V20.0001C26.6668 24.3998 26.6668 26.5997 25.1047 27.9666C23.5427 29.3334 21.0284 29.3334 16.0002 29.3334C10.9718 29.3334 8.4577 29.3334 6.89559 27.9666C5.3335 26.5997 5.3335 24.3998 5.3335 20.0001V12.0001Z" stroke="#390D8E" stroke-width="2" stroke-linecap="round"/>
<path d="M16.8384 18.9958C16.6136 19.2123 16.3131 19.3334 16.0003 19.3334C15.6875 19.3334 15.387 19.2123 15.1622 18.9958C13.103 17.0006 10.3436 14.7718 11.6893 11.5359C12.4169 9.78629 14.1635 8.66675 16.0003 8.66675C17.8371 8.66675 19.5836 9.78629 20.3112 11.5359C21.6552 14.7677 18.9026 17.0074 16.8384 18.9958Z" stroke="#390D8E" stroke-width="2"/>
<path d="M16 13.3333H16.012" stroke="#390D8E" stroke-width="2.66667" stroke-linecap="round" stroke-linejoin="round"/>
<path d="M14.6665 25.3333H17.3332" stroke="#390D8E" stroke-width="2" stroke-linecap="round" stroke-linejoin="round"/>
</svg>
