<svg width="32" height="32" viewBox="0 0 32 32" fill="none" xmlns="http://www.w3.org/2000/svg">
<path d="M19.333 13.9998C19.333 15.8407 17.8406 17.3331 15.9997 17.3331C14.1588 17.3331 12.6664 15.8407 12.6664 13.9998C12.6664 12.1589 14.1588 10.6665 15.9997 10.6665C17.8406 10.6665 19.333 12.1589 19.333 13.9998Z" stroke="#390D8E" stroke-width="1.5" stroke-linecap="round" stroke-linejoin="round"/>
<path d="M21.3333 4.66675C24.6392 4.66675 26.9204 5.17903 28.1772 5.56851C28.9008 5.79277 29.3333 6.4786 29.3333 7.23615V20.2431C29.3333 21.7299 27.6958 22.8486 26.2349 22.5727C24.9814 22.3361 23.3476 22.1459 21.3333 22.1459C14.9988 22.1459 13.4794 24.5535 4.19303 22.5057C3.29683 22.3081 2.66663 21.5021 2.66663 20.5843V7.22829C2.66663 5.92716 3.89435 4.97829 5.1706 5.23156C13.5956 6.90337 15.2278 4.66675 21.3333 4.66675Z" stroke="#390D8E" stroke-width="1.5" stroke-linecap="round" stroke-linejoin="round"/>
<path d="M2.66663 9.99992C5.2684 9.99992 7.6064 7.87335 7.90531 5.67215M24.6673 5.33325C24.6673 8.05277 27.0206 10.6252 29.3333 10.6252M29.3333 17.9999C26.8012 17.9999 24.3468 19.7469 24.136 22.131M8.00061 22.6614C8.00061 19.7159 5.6128 17.3281 2.66728 17.3281" stroke="#390D8E" stroke-width="1.5" stroke-linecap="round" stroke-linejoin="round"/>
<path d="M25.3333 26.3105C24.2289 26.1287 22.8957 26 21.334 26C15.6081 26 13.8165 28.2131 6.66663 26.9369" stroke="#390D8E" stroke-width="1.5" stroke-linecap="round" stroke-linejoin="round"/>
</svg>
