<svg width="55" height="55" viewBox="0 0 55 55" fill="none" xmlns="http://www.w3.org/2000/svg">
<path d="M27.3212 10.9772C38.2623 7.24729 43.7328 5.38235 46.6753 8.32474C49.6176 11.2671 47.7526 16.7377 44.0229 27.6788L41.4828 35.1294C38.6185 43.532 37.1862 47.7334 34.8251 48.081C34.1905 48.1745 33.5335 48.1184 32.9053 47.9167C30.5697 47.1669 29.3349 42.7371 26.8654 33.8777C26.3177 31.9126 26.0439 30.9299 25.4201 30.1794C25.239 29.9617 25.0383 29.761 24.8206 29.5799C24.0701 28.9561 23.0874 28.6823 21.1224 28.1346C12.263 25.6651 7.83323 24.4303 7.0833 22.0946C6.88168 21.4666 6.82542 20.8096 6.9189 20.1748C7.26659 17.8139 11.4679 16.3816 19.8706 13.5171L27.3212 10.9772Z" stroke="#390D8E" stroke-width="3.4375"/>
</svg>
