<svg width="32" height="32" viewBox="0 0 32 32" fill="none" xmlns="http://www.w3.org/2000/svg">
<path d="M28 5.3335H4M28 26.6668H4" stroke="#390D8E" stroke-width="2" stroke-linecap="round" stroke-linejoin="round"/>
<path d="M9.51304 12.8812C12.0599 14.2277 13.3333 14.901 13.3333 15.9998C13.3333 17.0986 12.0599 17.772 9.51304 19.1185L7.7787 20.0354C5.82274 21.0696 4.84476 21.5866 4.37454 21.2108C4.24812 21.1097 4.14383 20.9765 4.0698 20.8216C3.7945 20.2453 4.34914 19.1876 5.45843 17.0722C5.70448 16.603 5.82751 16.3684 5.84951 16.1118C5.8559 16.0373 5.8559 15.9624 5.84951 15.8878C5.82751 15.6313 5.70448 15.3966 5.45843 14.9274C4.34914 12.812 3.7945 11.7543 4.0698 11.1781C4.14383 11.0232 4.24812 10.89 4.37454 10.789C4.84476 10.413 5.82274 10.9301 7.7787 11.9642L9.51304 12.8812Z" stroke="#390D8E" stroke-width="2"/>
<path d="M28.0007 16H25.334" stroke="#390D8E" stroke-width="2" stroke-linecap="round" stroke-linejoin="round"/>
<path d="M20.0007 16H17.334" stroke="#390D8E" stroke-width="2" stroke-linecap="round" stroke-linejoin="round"/>
</svg>
