<svg width="32" height="32" viewBox="0 0 32 32" fill="none" xmlns="http://www.w3.org/2000/svg">
<path d="M27.3333 21.1038C23.9979 29.0081 13.152 31.3114 6.93516 25.1522C0.839229 19.113 2.72649 8.17185 10.742 4.66675" stroke="#390D8E" stroke-width="2" stroke-linecap="round"/>
<path d="M23.5774 16.6666C26.0943 16.6666 27.3527 16.6666 28.1654 15.5399C28.1958 15.4978 28.2463 15.4222 28.2735 15.3781C29.0035 14.1961 28.6273 13.2879 27.875 11.4716C27.1927 9.82463 26.1929 8.32812 24.9323 7.06756C23.6717 5.807 22.1753 4.80707 20.5282 4.12485C18.7119 3.37253 17.8038 2.99636 16.6218 3.72628C16.5777 3.75356 16.5021 3.80404 16.4599 3.83441C15.3333 4.64712 15.3333 5.90555 15.3333 8.4224V11.2366C15.3333 13.7963 15.3333 15.0762 16.1285 15.8714C16.9237 16.6666 18.2035 16.6666 20.7633 16.6666H23.5774Z" stroke="#390D8E" stroke-width="2"/>
</svg>
