<svg width="32" height="32" viewBox="0 0 32 32" fill="none" xmlns="http://www.w3.org/2000/svg">
<path d="M15.9998 2.66663C10.8452 2.66663 6.6665 6.84529 6.6665 12C6.6665 17.1546 10.8452 21.3333 15.9998 21.3333C21.1545 21.3333 25.3332 17.1546 25.3332 12C25.3332 6.84531 21.1545 2.66663 15.9998 2.66663Z" stroke="#390D8E" stroke-width="2" stroke-linecap="round" stroke-linejoin="round"/>
<path d="M20 24C17.3333 24 16 26 16 26C16 26 17.3333 28 20 28C22.6667 28 24 26 24 26C24 26 22.6667 24 20 24Z" stroke="#390D8E" stroke-width="2" stroke-linecap="round" stroke-linejoin="round"/>
<path d="M12 24C9.33333 24 8 26 8 26C8 26 9.33333 28 12 28C14.6667 28 16 26 16 26C16 26 14.6667 24 12 24Z" stroke="#390D8E" stroke-width="2" stroke-linecap="round" stroke-linejoin="round"/>
<path d="M16 29.3334V21.3334" stroke="#390D8E" stroke-width="2" stroke-linecap="round" stroke-linejoin="round"/>
<path d="M13.9165 15.5556V8.4444M15.9998 8.4444V6.66663M15.9998 17.3333V15.5556M13.9165 12H18.0832M18.0832 12C18.7736 12 19.3332 12.5969 19.3332 13.3333V14.2222C19.3332 14.9586 18.7736 15.5556 18.0832 15.5556H12.6665M18.0832 12C18.7736 12 19.3332 11.403 19.3332 10.6666V9.77773C19.3332 9.04136 18.7736 8.4444 18.0832 8.4444H12.6665" stroke="#390D8E" stroke-width="2" stroke-linecap="round" stroke-linejoin="round"/>
</svg>
