<svg width="32" height="32" viewBox="0 0 32 32" fill="none" xmlns="http://www.w3.org/2000/svg">
<path d="M26 7.33337L25.3333 15.3334M6 7.33337L6.80615 20.7158C7.0126 24.1431 7.11584 25.8567 7.97157 27.089C8.39467 27.6983 8.93973 28.2126 9.57207 28.5991C10.3484 29.0735 11.2846 29.26 12.6667 29.3334" stroke="#4C12BD" stroke-width="2" stroke-linecap="round"/>
<path d="M14.6667 20.6666L16.1818 22.6209C16.944 19.7758 19.8686 18.0873 22.7136 18.8497C24.17 19.24 25.3234 20.1966 26 21.4194M28 27.3333L26.485 25.3817C25.7226 28.2268 22.7982 29.9153 19.953 29.1529C18.5304 28.7717 17.397 27.85 16.7146 26.668" stroke="#4C12BD" stroke-width="2" stroke-linecap="round" stroke-linejoin="round"/>
<path d="M4 7.33329H28M21.4076 7.33329L20.4975 5.4556C19.8928 4.20831 19.5904 3.58465 19.0689 3.19571C18.9533 3.10943 18.8308 3.03268 18.7027 2.96623C18.1252 2.66663 17.4321 2.66663 16.046 2.66663C14.6251 2.66663 13.9147 2.66663 13.3276 2.97879C13.1975 3.04797 13.0733 3.12783 12.9564 3.21752C12.4289 3.62223 12.1342 4.26869 11.5448 5.56164L10.7372 7.33329" stroke="#4C12BD" stroke-width="2" stroke-linecap="round"/>
</svg>
