<svg width="24" height="24" viewBox="0 0 24 24" fill="none" xmlns="http://www.w3.org/2000/svg">
<g clip-path="url(#clip0_696_25292)">
<path d="M15.8504 3.80536C14.1402 3.38405 12.1564 3.35505 10.1226 3.81016C8.0888 4.26527 6.30648 5.13703 4.93893 6.24706C4.2683 6.79141 3.93298 7.06359 3.69945 7.73569C3.46592 8.40779 3.59382 8.97935 3.84962 10.1225L4.48453 12.9598C5.51878 17.5816 9.78775 19.3247 12.1733 19.9466C12.8387 20.1201 13.1713 20.2068 13.7621 20.0746C14.3529 19.9424 14.6169 19.7222 15.1448 19.2817C17.0378 17.7023 20.1568 14.306 19.1225 9.68417L18.4876 6.84688C18.2318 5.70377 18.1039 5.13222 17.6062 4.62373C17.1085 4.11526 16.6891 4.01196 15.8504 3.80536Z" stroke="#079455" stroke-width="1.25" stroke-linecap="round" stroke-linejoin="round"/>
<path d="M9.41168 12.0817C9.41168 12.0817 10.6025 12.0304 11.4021 13.3442C11.4021 13.3442 12.076 10.6316 13.9271 9.36342" stroke="#079455" stroke-width="1.25" stroke-linecap="round" stroke-linejoin="round"/>
</g>
<defs>
<clipPath id="clip0_696_25292">
<rect width="20" height="20" fill="white" transform="translate(0 4.36745) rotate(-12.6135)"/>
</clipPath>
</defs>
</svg>
