<svg width="24" height="24" viewBox="0 0 24 24" fill="none" xmlns="http://www.w3.org/2000/svg">
<path d="M23.9132 17.4574C23.7478 17.0039 23.4291 16.7588 23.0675 16.5627C23.0001 16.5259 22.9388 16.4891 22.8836 16.4646C22.7733 16.4094 22.663 16.3543 22.5527 16.2991C21.425 15.6985 20.5425 14.9508 19.9358 14.0561C19.7642 13.8048 19.611 13.5351 19.4884 13.2593C19.4332 13.1123 19.4394 13.0265 19.4761 12.9468C19.5129 12.8855 19.5619 12.8365 19.6232 12.7936C19.8193 12.6649 20.0155 12.5362 20.1503 12.4504C20.3893 12.291 20.5854 12.1685 20.708 12.0827C21.1676 11.7578 21.4924 11.4146 21.6947 11.0285C21.9827 10.4892 22.0195 9.85797 21.7989 9.28802C21.4924 8.47904 20.7325 7.98263 19.8071 7.98263C19.611 7.98263 19.421 8.00101 19.2249 8.04391C19.1758 8.05617 19.1207 8.06843 19.0716 8.08068C19.0778 7.52911 19.0655 6.94689 19.0165 6.37081C18.8449 4.3545 18.134 3.30038 17.3985 2.46077C16.9266 1.93371 16.3751 1.48632 15.7561 1.13699C14.6407 0.49962 13.3721 0.174805 11.9931 0.174805C10.6142 0.174805 9.35171 0.49962 8.2363 1.13699C7.61732 1.48632 7.06574 1.93371 6.59384 2.46077C5.85841 3.30038 5.15363 4.36063 4.9759 6.37081C4.92687 6.94689 4.91461 7.52911 4.92074 8.08068C4.87171 8.06843 4.82268 8.05617 4.76752 8.04391C4.57754 8.00101 4.38142 7.98263 4.19144 7.98263C3.26602 7.98263 2.50607 8.48517 2.19965 9.28802C1.97902 9.85797 2.01579 10.4892 2.30383 11.0285C2.50607 11.4146 2.83089 11.7578 3.29053 12.0827C3.41311 12.1685 3.60309 12.291 3.84824 12.4504C3.97694 12.5362 4.16692 12.6587 4.35691 12.7813C4.42432 12.8242 4.47948 12.8794 4.52238 12.9468C4.55915 13.0265 4.56528 13.1123 4.50399 13.2716C4.38142 13.5413 4.23434 13.8048 4.06274 14.0499C3.46826 14.9202 2.61026 15.6617 1.51937 16.2562C0.943285 16.5627 0.342683 16.7649 0.085282 17.4574C-0.104704 17.9784 0.0178675 18.5667 0.502026 19.0692C0.679755 19.2531 0.888127 19.4124 1.11489 19.535C1.58679 19.7924 2.08933 19.9947 2.61639 20.1356C2.7267 20.1663 2.82476 20.2092 2.91669 20.2704C3.09442 20.4237 3.0699 20.6565 3.30279 20.9997C3.41923 21.1775 3.57245 21.3307 3.74405 21.4533C4.24047 21.7965 4.79817 21.8148 5.38651 21.8394C5.9197 21.8577 6.5203 21.8823 7.21283 22.109C7.50087 22.201 7.79505 22.3848 8.13825 22.5993C8.96561 23.108 10.0933 23.8005 11.987 23.8005C13.8807 23.8005 15.0145 23.1019 15.848 22.5932C16.1912 22.3848 16.4854 22.201 16.7612 22.109C17.4476 21.8823 18.0543 21.8577 18.5875 21.8394C19.1758 21.8148 19.7335 21.7965 20.23 21.4533C20.4383 21.3062 20.6099 21.1223 20.7325 20.9017C20.9041 20.6136 20.898 20.4114 21.0573 20.2704C21.1431 20.2092 21.2412 20.1663 21.3392 20.1417C21.8663 20.0008 22.3811 19.7985 22.8591 19.535C23.0981 19.4063 23.3188 19.2347 23.5026 19.0325L23.5087 19.0263C23.9868 18.5361 24.1032 17.96 23.9132 17.4574ZM22.234 18.3583C21.2105 18.9222 20.5241 18.8609 19.9971 19.2041C19.5436 19.4921 19.8132 20.1172 19.4884 20.344C19.0839 20.6198 17.895 20.3256 16.3628 20.8343C15.0942 21.251 14.2914 22.4584 12.0115 22.4584C9.73168 22.4584 8.94722 21.2571 7.66022 20.8343C6.12807 20.3256 4.93912 20.6259 4.53464 20.344C4.20982 20.1172 4.47335 19.4921 4.02596 19.2041C3.49278 18.8609 2.8125 18.9222 1.78903 18.3583C1.13327 17.9967 1.50711 17.7761 1.72162 17.6719C5.43554 15.8762 6.03001 13.1 6.05453 12.8916C6.08517 12.6404 6.12194 12.4442 5.84616 12.193C5.58263 11.9478 4.40594 11.2185 4.07499 10.9918C3.53568 10.6118 3.29666 10.2379 3.47439 9.77217C3.59696 9.45349 3.89726 9.33092 4.20982 9.33092C4.30788 9.33092 4.40594 9.34317 4.50399 9.36156C5.09847 9.49026 5.67456 9.78443 6.0055 9.87023C6.0484 9.88249 6.08517 9.88862 6.12807 9.88862C6.3058 9.88862 6.36709 9.79669 6.35483 9.59444C6.31806 8.94481 6.22613 7.68232 6.33031 6.49951C6.47127 4.87543 6.9922 4.06646 7.61732 3.35554C7.91762 3.01234 9.32106 1.52922 12.0115 1.52922C14.702 1.52922 16.1054 3.00621 16.4057 3.34941C17.0308 4.06033 17.5518 4.8693 17.6927 6.49338C17.7969 7.6762 17.705 8.93869 17.6621 9.58832C17.6498 9.80282 17.7111 9.88249 17.8888 9.88249C17.9317 9.88249 17.9685 9.87636 18.0114 9.8641C18.3423 9.78443 18.9184 9.48413 19.5129 9.35543C19.611 9.33092 19.709 9.32479 19.8071 9.32479C20.1196 9.32479 20.4199 9.44736 20.5425 9.76605C20.7202 10.2318 20.4812 10.6057 19.9419 10.9856C19.6171 11.2124 18.4404 11.9417 18.1707 12.1868C17.895 12.4381 17.9317 12.6342 17.9624 12.8855C17.9869 13.0939 18.5814 15.8701 22.2953 17.6658C22.5159 17.77 22.8836 17.9967 22.234 18.3583Z" fill="#24175F"/>
</svg>
