<svg width="32" height="32" viewBox="0 0 32 32" fill="none" xmlns="http://www.w3.org/2000/svg">
<path d="M22.6667 14.406C22.6667 13.9451 22.6667 13.7147 22.736 13.5093C22.9376 12.9126 23.4691 12.681 24.0015 12.4385C24.6 12.1659 24.8992 12.0296 25.1957 12.0056C25.5324 11.9784 25.8696 12.0509 26.1573 12.2124C26.5388 12.4265 26.8048 12.8332 27.0772 13.164C28.3351 14.6917 28.9639 15.4557 29.194 16.2981C29.3797 16.9779 29.3797 17.6888 29.194 18.3685C28.8584 19.5972 27.798 20.6272 27.0131 21.5805C26.6116 22.0681 26.4108 22.312 26.1573 22.4543C25.8696 22.6157 25.5324 22.6883 25.1957 22.6611C24.8992 22.6371 24.6 22.5008 24.0015 22.2281C23.4691 21.9856 22.9376 21.7541 22.736 21.1573C22.6667 20.952 22.6667 20.7216 22.6667 20.2607V14.406Z" stroke="#5F16EC" stroke-width="2"/>
<path d="M9.33334 14.4061C9.33334 13.8259 9.31705 13.3043 8.84789 12.8963C8.67725 12.7479 8.45101 12.6448 7.99855 12.4387C7.40002 12.1661 7.10075 12.0298 6.80422 12.0058C5.91455 11.9339 5.4359 12.5411 4.92285 13.1642C3.66501 14.692 3.03609 15.4559 2.80595 16.2983C2.62025 16.9781 2.62025 17.6891 2.80595 18.3688C3.14161 19.5975 4.20203 20.6273 4.98695 21.5808C5.48173 22.1817 5.95437 22.73 6.80422 22.6613C7.10075 22.6373 7.40002 22.5009 7.99855 22.2284C8.45101 22.0223 8.67725 21.9192 8.84789 21.7708C9.31705 21.3628 9.33334 20.8413 9.33334 20.2609V14.4061Z" stroke="#5F16EC" stroke-width="2"/>
<path d="M6.66667 12C6.66667 7.58172 10.8454 4 16 4C21.1547 4 25.3333 7.58172 25.3333 12" stroke="#5F16EC" stroke-width="2" stroke-linecap="square" stroke-linejoin="round"/>
<path d="M25.3333 22.6666V23.7333C25.3333 26.0897 22.9455 28 20 28H17.3333" stroke="#5F16EC" stroke-width="2" stroke-linecap="round" stroke-linejoin="round"/>
</svg>
