<svg width="331" height="462" viewBox="0 0 331 462" fill="none" xmlns="http://www.w3.org/2000/svg">
<path d="M3.63626 356.818C-0.390483 359.822 -1.23304 365.532 1.91595 369.446C27.7904 401.606 61.3193 426.836 99.4925 442.787C140.467 459.909 185.287 465.711 229.271 459.587C273.254 453.464 314.785 435.639 349.524 407.976C384.263 380.313 410.934 343.827 426.751 302.332C442.567 260.837 446.948 215.855 439.436 172.087C431.923 128.32 412.793 87.3734 384.045 53.5272C355.297 19.6811 317.985 -5.82235 276.01 -20.3178C236.904 -33.8223 195.088 -37.3106 154.372 -30.5328C149.417 -29.7079 146.245 -24.8852 147.251 -19.9635C148.257 -15.0419 153.06 -11.8865 158.018 -12.697C195.538 -18.8309 234.047 -15.5637 270.072 -3.12283C308.967 10.309 343.541 33.9412 370.18 65.3039C396.819 96.6666 414.545 134.609 421.507 175.165C428.468 215.721 424.408 257.402 409.752 295.853C395.096 334.304 370.382 368.112 338.192 393.745C306.002 419.379 267.518 435.895 226.762 441.57C186.006 447.244 144.474 441.868 106.506 426.002C71.3399 411.308 40.4269 388.114 16.5085 358.562C13.3482 354.657 7.66301 353.815 3.63626 356.818Z" fill="url(#paint0_linear_385_7894)"/>
<defs>
<linearGradient id="paint0_linear_385_7894" x1="260.769" y1="261.257" x2="6.12704" y2="34.6169" gradientUnits="userSpaceOnUse">
<stop stop-color="#DCCAFF"/>
<stop offset="1" stop-color="#988CB0"/>
</linearGradient>
</defs>
</svg>
