<svg width="24" height="24" viewBox="0 0 24 24" fill="none" xmlns="http://www.w3.org/2000/svg">
<path d="M19.0408 3.76C17.9948 2.71937 17.4182 1.3832 17.4184 0H12.6888V16.5333C12.6531 17.4283 12.2197 18.2761 11.4801 18.898C10.7404 19.5199 9.75245 19.8672 8.72449 19.8667C6.55102 19.8667 4.7449 18.32 4.7449 16.4C4.7449 14.1067 7.28571 12.3867 9.90306 13.0933V8.88C4.62245 8.26667 0 11.84 0 16.4C0 20.84 4.22449 24 8.70918 24C13.5153 24 17.4184 20.6 17.4184 16.4V8.01333C19.3362 9.21313 21.6388 9.85686 24 9.85333V5.73333C24 5.73333 21.1224 5.85333 19.0408 3.76Z" fill="#24175F"/>
</svg>
