<svg width="55" height="55" viewBox="0 0 55 55" fill="none" xmlns="http://www.w3.org/2000/svg">
<path d="M36.6666 22.9167C39.8752 22.9167 41.4796 22.9167 42.7052 23.5412C43.7832 24.0905 44.6595 24.9669 45.2088 26.0449C45.8333 27.2705 45.8333 28.8749 45.8333 32.0834V38.9584C45.8333 44.3599 45.8333 47.0606 44.1553 48.7388C42.4771 50.4167 39.7764 50.4167 34.375 50.4167H20.625C15.2235 50.4167 12.5227 50.4167 10.8447 48.7388C9.16663 47.0606 9.16663 44.3599 9.16663 38.9584V32.0834C9.16663 28.8749 9.16663 27.2705 9.79106 26.0449C10.3403 24.9669 11.2168 24.0905 12.2948 23.5412C13.5203 22.9167 15.1247 22.9167 18.3333 22.9167" stroke="#390D8E" stroke-width="3.4375" stroke-linecap="round" stroke-linejoin="round"/>
<path d="M27.5 36.6667V9.16675" stroke="#390D8E" stroke-width="3.4375" stroke-linecap="round" stroke-linejoin="round"/>
<path d="M34.375 13.75C34.375 13.75 29.3116 6.87502 27.5 6.875C25.6882 6.87498 20.625 13.75 20.625 13.75" stroke="#390D8E" stroke-width="3.4375" stroke-linecap="round" stroke-linejoin="round"/>
</svg>
