<svg width="34" height="32" viewBox="0 0 34 32" fill="none" xmlns="http://www.w3.org/2000/svg">
<path d="M1 16C1 9.96597 1 6.94899 2.87451 5.07446C4.74904 3.19995 7.76602 3.19995 13.8 3.19995H20.2C26.2339 3.19995 29.251 3.19995 31.1254 5.07446C33 6.94899 33 9.96597 33 16C33 22.0339 33 25.051 31.1254 26.9254C29.251 28.8 26.2339 28.8 20.2 28.8H13.8C7.76602 28.8 4.74904 28.8 2.87451 26.9254C1 25.051 1 22.0339 1 16Z" stroke="#390D8E" stroke-width="2" stroke-linecap="round" stroke-linejoin="round"/>
<path d="M12.9998 16.6667C11.1589 16.6667 9.6665 15.1743 9.6665 13.3333C9.6665 11.4924 11.1589 10 12.9998 10C14.8408 10 16.3332 11.4924 16.3332 13.3333C16.3332 15.1743 14.8408 16.6667 12.9998 16.6667ZM12.9998 16.6667C15.9453 16.6667 18.3332 19.0545 18.3332 22M12.9998 16.6667C10.0543 16.6667 7.6665 19.0545 7.6665 22" stroke="#390D8E" stroke-width="2" stroke-linecap="round" stroke-linejoin="round"/>
<path d="M21 12H26.3333" stroke="#390D8E" stroke-width="2" stroke-linecap="round" stroke-linejoin="round"/>
<path d="M21 16H26.3333" stroke="#390D8E" stroke-width="2" stroke-linecap="round" stroke-linejoin="round"/>
</svg>
