<svg width="32" height="32" viewBox="0 0 32 32" fill="none" xmlns="http://www.w3.org/2000/svg">
<path d="M20.6667 17.3333C25.4531 17.3333 29.3333 16.1394 29.3333 14.6667C29.3333 13.1939 25.4531 12 20.6667 12C15.8802 12 12 13.1939 12 14.6667C12 16.1394 15.8802 17.3333 20.6667 17.3333Z" stroke="#390D8E" stroke-width="2"/>
<path d="M29.3333 20.6667C29.3333 22.1395 25.4532 23.3334 20.6667 23.3334C15.8801 23.3334 12 22.1395 12 20.6667" stroke="#390D8E" stroke-width="2"/>
<path d="M29.3333 14.6667V26.4001C29.3333 28.0201 25.4532 29.3334 20.6667 29.3334C15.8801 29.3334 12 28.0201 12 26.4001V14.6667" stroke="#390D8E" stroke-width="2"/>
<path d="M11.3337 8.00008C16.1201 8.00008 20.0003 6.80617 20.0003 5.33341C20.0003 3.86066 16.1201 2.66675 11.3337 2.66675C6.54719 2.66675 2.66699 3.86066 2.66699 5.33341C2.66699 6.80617 6.54719 8.00008 11.3337 8.00008Z" stroke="#390D8E" stroke-width="2"/>
<path d="M8.00033 14.6667C5.47791 14.3597 3.16021 13.566 2.66699 12M8.00033 21.3333C5.47791 21.0264 3.16021 20.2327 2.66699 18.6667" stroke="#390D8E" stroke-width="2"/>
<path d="M8.00033 27.9999C5.47791 27.693 3.16021 26.8993 2.66699 25.3333V5.33325" stroke="#390D8E" stroke-width="2"/>
<path d="M20 7.99992V5.33325" stroke="#390D8E" stroke-width="2"/>
</svg>
