<svg width="32" height="32" viewBox="0 0 32 32" fill="none" xmlns="http://www.w3.org/2000/svg">
<path d="M17.3337 14.6666C17.3337 11.7211 14.9458 9.33325 12.0003 9.33325C9.05481 9.33325 6.66699 11.7211 6.66699 14.6666C6.66699 17.6121 9.05481 19.9999 12.0003 19.9999C14.9458 19.9999 17.3337 17.6121 17.3337 14.6666Z" stroke="#390D8E" stroke-width="2" stroke-linecap="round" stroke-linejoin="round"/>
<path d="M14.7185 10.077C14.6845 9.83396 14.667 9.58569 14.667 9.33333C14.667 6.38781 17.0549 4 20.0003 4C22.9458 4 25.3337 6.38781 25.3337 9.33333C25.3337 12.2789 22.9458 14.6667 20.0003 14.6667C19.0075 14.6667 18.0782 14.3955 17.2822 13.9231" stroke="#390D8E" stroke-width="2" stroke-linecap="round" stroke-linejoin="round"/>
<path d="M20 28C20 23.5817 16.4183 20 12 20C7.58172 20 4 23.5817 4 28" stroke="#390D8E" stroke-width="2" stroke-linecap="round" stroke-linejoin="round"/>
<path d="M28 22.6667C28 18.2485 24.4183 14.6667 20 14.6667" stroke="#390D8E" stroke-width="2" stroke-linecap="round" stroke-linejoin="round"/>
</svg>
