<svg width="32" height="32" viewBox="0 0 32 32" fill="none" xmlns="http://www.w3.org/2000/svg">
<path d="M18.6667 5.33329C18.6667 6.80605 17.4728 7.99996 16 7.99996C14.5272 7.99996 13.3334 6.80605 13.3334 5.33329C13.3334 3.86053 14.5272 2.66663 16 2.66663C17.4728 2.66663 18.6667 3.86053 18.6667 5.33329Z" stroke="#4C12BD" stroke-width="2" stroke-linecap="round" stroke-linejoin="round"/>
<path d="M13.3336 21.3334V26.6667C13.3336 27.9238 13.3336 28.5523 13.7242 28.9428C14.1147 29.3334 14.7432 29.3334 16.0003 29.3334C17.2574 29.3334 17.8859 29.3334 18.2764 28.9428C18.667 28.5523 18.667 27.9238 18.667 26.6667V21.3334L19.0138 21.3343C21.0836 21.334 22.1186 21.3339 22.5236 20.6866C22.9287 20.0394 22.4416 19.1638 21.4676 17.4127L19.0678 13.0981C18.4635 12.0117 17.2838 11.3331 15.9995 11.3334C14.7158 11.3336 13.5367 12.0121 12.9326 13.0981L10.5325 17.4127C9.55844 19.1638 9.07141 20.0392 9.47645 20.6866C9.88149 21.3339 10.9164 21.334 12.9863 21.3343L13.3336 21.3334Z" stroke="#4C12BD" stroke-width="2" stroke-linejoin="round"/>
</svg>
